<svg width="32" height="32" fill="none" xmlns="http://www.w3.org/2000/svg"><path d="m7.846 27.52-2.884-2.88L25.154 4.48l2.884 2.912L7.846 27.52Zm15.385.48a5.644 5.644 0 0 1-2.9-.768 6.07 6.07 0 0 1-2.084-2.08c-.524-.875-.785-1.845-.785-2.912a5.42 5.42 0 0 1 .8-2.88 6.116 6.116 0 0 1 2.116-2.096 5.468 5.468 0 0 1 2.853-.784c1.057 0 2.024.261 2.9.784a5.724 5.724 0 0 1 2.084 2.08c.523.864.785 1.83.785 2.896 0 1.067-.262 2.037-.785 2.912a5.892 5.892 0 0 1-2.084 2.08 5.644 5.644 0 0 1-2.9.768Zm0-3.68c.374 0 .716-.096 1.025-.288.32-.192.577-.443.77-.752.192-.32.288-.667.288-1.04a1.9 1.9 0 0 0-.288-1.024 2.208 2.208 0 0 0-.77-.768 1.909 1.909 0 0 0-1.025-.288 1.99 1.99 0 0 0-1.042.288c-.31.192-.56.448-.753.768-.192.31-.289.65-.289 1.024 0 .373.097.72.289 1.04.192.31.443.56.753.752.32.192.668.288 1.042.288Zm-13.462-8.8a5.644 5.644 0 0 1-2.9-.768 6.026 6.026 0 0 1-2.1-2.08C4.256 11.797 4 10.827 4 9.76a5.42 5.42 0 0 1 .801-2.88 6.116 6.116 0 0 1 2.116-2.096A5.468 5.468 0 0 1 9.769 4c1.058 0 2.02.261 2.885.784a5.85 5.85 0 0 1 2.1 2.08c.523.864.785 1.83.785 2.896 0 1.067-.262 2.037-.786 2.912a6.026 6.026 0 0 1-2.1 2.08c-.864.512-1.826.768-2.884.768Zm0-3.68a1.91 1.91 0 0 0 1.026-.288c.32-.192.577-.443.77-.752.191-.32.288-.667.288-1.04s-.097-.715-.289-1.024a2.208 2.208 0 0 0-.77-.768A1.91 1.91 0 0 0 9.77 7.68c-.374 0-.72.096-1.041.288-.31.192-.561.448-.754.768-.192.31-.288.65-.288 1.024 0 .373.096.72.288 1.04.193.31.444.56.754.752.32.192.667.288 1.041.288Z" fill="url(#a)"/><defs><linearGradient id="a" x1="16.5" y1="4" x2="17" y2="47.5" gradientUnits="userSpaceOnUse"><stop stop-color="#E9B98A"/><stop offset="1" stop-color="#D6850B"/></linearGradient></defs></svg>