<svg width="32" height="30" fill="none" xmlns="http://www.w3.org/2000/svg"><g clip-path="url(#a)"><path d="m6.887 2.011 8.865-.928 8.865.928 6.864 9.128-15.729 18.147L.025 11.14l6.863-9.128h-.001Z" fill="#FDB300"/><path d="m6.395 11.249 9.358 18.037L.023 11.25h6.372Zm18.717 0-9.358 18.037L31.482 11.25h-6.37Z" fill="#EA6C00"/><path d="M6.252 11.249H24.93L15.59 29.286 6.251 11.25h.001Z" fill="#FDAD00"/><path d="m15.427 1.083-8.693.938-.483 9.228 9.176-10.166Zm.323 0 8.692.938.483 9.228L15.75 1.083Z" fill="#FDD231"/><path d="m31.482 11.25-6.881-9.183.493 9.182h6.388Zm-31.458 0 6.882-9.183-.494 9.182H.024Z" fill="#FDAD00"/><path d="M15.59 1.083 6.253 11.249H24.93L15.59 1.083Z" fill="#FEEEB7"/></g><defs><clipPath id="a"><path fill="#fff" transform="translate(0 .627)" d="M0 0h32v28.746H0z"/></clipPath></defs></svg>