<svg width="1920" height="2290" fill="none" xmlns="http://www.w3.org/2000/svg"><g clip-path="url(#a)"><g style="mix-blend-mode:screen" opacity=".15" filter="url(#b)"><rect x="-1352" y="-198" width="1307" height="1564" rx="653.5" fill="#FF276C"/></g><g style="mix-blend-mode:screen" opacity=".05" filter="url(#c)"><rect x="1736" y="726" width="1307" height="1564" rx="653.5" fill="#FF276C"/></g><mask id="d" style="mask-type:alpha" maskUnits="userSpaceOnUse" x="1411" y="503" width="769" height="975"><path transform="rotate(90 2179.69 503)" fill="#D9D9D9" d="M2179.69 503h975v768.686h-975z"/></mask><g style="mix-blend-mode:overlay" mask="url(#d)"><mask id="f" fill="#fff"><path d="M1104.86-609.993h355.25V910.471h-355.25V-609.993Z"/></mask><path d="M1453-609.993V910.471h14.21V-609.993H1453Z" fill="url(#e)" mask="url(#f)"/><mask id="h" fill="#fff"><path d="M1453 651.132V295.884h355.25v355.248H1453Z"/></mask><path d="M1453 302.989h355.25v-14.21H1453v14.21Z" fill="url(#g)" mask="url(#h)"/><mask id="j" fill="#fff"><path d="M1104.86 1258.61V903.361h355.25v355.249h-355.25Z"/></mask><path d="M1104.86 910.466h355.25v-14.21h-355.25v14.21Z" fill="url(#i)" mask="url(#j)"/><mask id="l" fill="#fff"><path d="M1460.1 867.845V512.596h-355.25v355.249h355.25Z"/></mask><path d="M1460.1 519.701h-355.25v-14.21h355.25v14.21Z" fill="url(#k)" mask="url(#l)"/><mask id="n" fill="#fff"><path d="M2156.39 370.519v355.248h-355.25V370.519h355.25Z"/></mask><path d="M2156.39 718.662h-355.25v14.21h355.25v-14.21Z" fill="url(#m)" mask="url(#n)"/><mask id="p" fill="#fff"><path d="M2156.39 1081.02h-355.25l.01-355.246h355.24v355.246Z"/></mask><path d="M1808.25 1081.02V725.774h-14.21v355.246h14.21Z" fill="url(#o)" mask="url(#p)"/><mask id="r" fill="#fff"><path d="M1453 175.124h355.25V1695.59H1453V175.124Z"/></mask><path d="M1801.15 175.124V1695.59h14.21V175.124h-14.21Z" fill="url(#q)" mask="url(#r)"/><mask id="t" fill="#fff"><path d="M1801.14 1436.25V1081h355.25v355.25h-355.25Z"/></mask><path d="M1801.14 1088.11h355.25v-14.21h-355.25v14.21Z" fill="url(#s)" mask="url(#t)"/><mask id="v" fill="#fff"><path d="M1453 1258.64V903.387h355.25v355.253H1453Z"/></mask><path d="M1453 910.492h355.25v-14.21H1453v14.21Z" fill="url(#u)" mask="url(#v)"/><mask id="x" fill="#fff"><path d="M1808.89 1652.28v-355.14H868.42v355.14h940.47Z"/></mask><path d="M1808.89 1304.25H868.42v-14.21h940.47v14.21Z" fill="url(#w)" mask="url(#x)"/></g><mask id="y" style="mask-type:alpha" maskUnits="userSpaceOnUse" x="-260" y="239" width="769" height="975"><path transform="matrix(0 1 1 0 -260 239)" fill="#D9D9D9" d="M0 0h975v768.686H0z"/></mask><g style="mix-blend-mode:overlay" mask="url(#y)"><mask id="A" fill="#fff"><path d="M814.829-873.993H459.581V646.471h355.248V-873.993Z"/></mask><path d="M466.686-873.993V646.471h-14.21V-873.993h14.21Z" fill="url(#z)" mask="url(#A)"/><mask id="C" fill="#fff"><path d="M466.688 387.132V31.884H111.439v355.248h355.249Z"/></mask><path d="M466.688 38.989H111.439v-14.21h355.249v14.21Z" fill="url(#B)" mask="url(#C)"/><mask id="E" fill="#fff"><path d="M814.83 994.609V639.361H459.581v355.248H814.83Z"/></mask><path d="M814.83 646.466H459.581v-14.21H814.83v14.21Z" fill="url(#D)" mask="url(#E)"/><mask id="G" fill="#fff"><path d="M459.583 603.845V248.596h355.249v355.249H459.583Z"/></mask><path d="M459.583 255.701h355.249v-14.21H459.583v14.21Z" fill="url(#F)" mask="url(#G)"/><mask id="I" fill="#fff"><path d="M-236.707 106.519v355.248h355.249V106.519h-355.249Z"/></mask><path d="M-236.707 454.662h355.249v14.21h-355.249v-14.21Z" fill="url(#H)" mask="url(#I)"/><mask id="K" fill="#fff"><path d="M-236.708 817.023h355.249V461.774h-355.249v355.249Z"/></mask><path d="M111.436 817.023V461.774h14.21v355.249h-14.21Z" fill="url(#J)" mask="url(#K)"/><mask id="M" fill="#fff"><path d="M466.684-88.876H111.435V1431.59h355.249V-88.876Z"/></mask><path d="M118.54-88.876V1431.59h-14.21V-88.876h14.21Z" fill="url(#L)" mask="url(#M)"/><mask id="O" fill="#fff"><path d="M118.542 1172.25V817h-355.249v355.25h355.249Z"/></mask><path d="M118.542 824.105h-355.249v-14.21h355.249v14.21Z" fill="url(#N)" mask="url(#O)"/><mask id="Q" fill="#fff"><path d="M466.687 994.636V639.387H111.438v355.249h355.249Z"/></mask><path d="M466.687 646.492H111.438v-14.21h355.249v14.21Z" fill="url(#P)" mask="url(#Q)"/><mask id="S" fill="#fff"><path d="M110.794 1388.28v-355.14h940.476v355.14H110.794Z"/></mask><path d="M110.794 1040.25h940.476v-14.21H110.794v14.21Z" fill="url(#R)" mask="url(#S)"/></g></g><defs><linearGradient id="e" x1="1460.11" y1="111.161" x2="1460.11" y2="-609.993" gradientUnits="userSpaceOnUse"><stop stop-color="#fff"/><stop offset="1" stop-color="#fff" stop-opacity="0"/></linearGradient><linearGradient id="g" x1="1808.25" y1="295.884" x2="1453" y2="295.884" gradientUnits="userSpaceOnUse"><stop stop-color="#fff"/><stop offset="1" stop-color="#fff" stop-opacity="0"/></linearGradient><linearGradient id="i" x1="1460.11" y1="903.361" x2="1104.86" y2="903.361" gradientUnits="userSpaceOnUse"><stop stop-color="#fff"/><stop offset="1" stop-color="#fff" stop-opacity="0"/></linearGradient><linearGradient id="k" x1="1104.85" y1="512.596" x2="1460.1" y2="512.596" gradientUnits="userSpaceOnUse"><stop stop-color="#fff"/><stop offset="1" stop-color="#fff" stop-opacity="0"/></linearGradient><linearGradient id="m" x1="1801.14" y1="725.767" x2="2156.39" y2="725.767" gradientUnits="userSpaceOnUse"><stop stop-color="#fff"/><stop offset="1" stop-color="#fff" stop-opacity="0"/></linearGradient><linearGradient id="o" x1="1801.15" y1="725.774" x2="1801.14" y2="1081.02" gradientUnits="userSpaceOnUse"><stop stop-color="#fff"/><stop offset="1" stop-color="#fff" stop-opacity="0"/></linearGradient><linearGradient id="q" x1="1808.25" y1="896.278" x2="1808.25" y2="175.124" gradientUnits="userSpaceOnUse"><stop stop-color="#fff"/><stop offset="1" stop-color="#fff" stop-opacity="0"/></linearGradient><linearGradient id="s" x1="2156.39" y1="1081" x2="1801.14" y2="1081" gradientUnits="userSpaceOnUse"><stop stop-color="#fff"/><stop offset="1" stop-color="#fff" stop-opacity="0"/></linearGradient><linearGradient id="u" x1="1808.25" y1="903.387" x2="1453" y2="903.387" gradientUnits="userSpaceOnUse"><stop stop-color="#fff"/><stop offset="1" stop-color="#fff" stop-opacity="0"/></linearGradient><linearGradient id="w" x1="868.42" y1="1297.14" x2="1808.89" y2="1297.14" gradientUnits="userSpaceOnUse"><stop stop-color="#fff"/><stop offset="1" stop-color="#fff" stop-opacity="0"/></linearGradient><linearGradient id="z" x1="459.581" y1="-152.839" x2="459.581" y2="-873.993" gradientUnits="userSpaceOnUse"><stop stop-color="#fff"/><stop offset="1" stop-color="#fff" stop-opacity="0"/></linearGradient><linearGradient id="B" x1="111.439" y1="31.884" x2="466.688" y2="31.884" gradientUnits="userSpaceOnUse"><stop stop-color="#fff"/><stop offset="1" stop-color="#fff" stop-opacity="0"/></linearGradient><linearGradient id="D" x1="459.581" y1="639.361" x2="814.83" y2="639.361" gradientUnits="userSpaceOnUse"><stop stop-color="#fff"/><stop offset="1" stop-color="#fff" stop-opacity="0"/></linearGradient><linearGradient id="F" x1="814.832" y1="248.596" x2="459.583" y2="248.596" gradientUnits="userSpaceOnUse"><stop stop-color="#fff"/><stop offset="1" stop-color="#fff" stop-opacity="0"/></linearGradient><linearGradient id="H" x1="118.542" y1="461.767" x2="-236.707" y2="461.767" gradientUnits="userSpaceOnUse"><stop stop-color="#fff"/><stop offset="1" stop-color="#fff" stop-opacity="0"/></linearGradient><linearGradient id="J" x1="118.541" y1="461.774" x2="118.541" y2="817.023" gradientUnits="userSpaceOnUse"><stop stop-color="#fff"/><stop offset="1" stop-color="#fff" stop-opacity="0"/></linearGradient><linearGradient id="L" x1="111.435" y1="632.278" x2="111.435" y2="-88.876" gradientUnits="userSpaceOnUse"><stop stop-color="#fff"/><stop offset="1" stop-color="#fff" stop-opacity="0"/></linearGradient><linearGradient id="N" x1="-236.707" y1="817" x2="118.542" y2="817" gradientUnits="userSpaceOnUse"><stop stop-color="#fff"/><stop offset="1" stop-color="#fff" stop-opacity="0"/></linearGradient><linearGradient id="P" x1="111.438" y1="639.387" x2="466.687" y2="639.387" gradientUnits="userSpaceOnUse"><stop stop-color="#fff"/><stop offset="1" stop-color="#fff" stop-opacity="0"/></linearGradient><linearGradient id="R" x1="1051.27" y1="1033.14" x2="110.794" y2="1033.14" gradientUnits="userSpaceOnUse"><stop stop-color="#fff"/><stop offset="1" stop-color="#fff" stop-opacity="0"/></linearGradient><filter id="b" x="-1907" y="-753" width="2417" height="2674" filterUnits="userSpaceOnUse" color-interpolation-filters="sRGB"><feFlood flood-opacity="0" result="BackgroundImageFix"/><feBlend in="SourceGraphic" in2="BackgroundImageFix" result="shape"/><feGaussianBlur stdDeviation="277.5" result="effect1_foregroundBlur_2070_232"/></filter><filter id="c" x="1181" y="171" width="2417" height="2674" filterUnits="userSpaceOnUse" color-interpolation-filters="sRGB"><feFlood flood-opacity="0" result="BackgroundImageFix"/><feBlend in="SourceGraphic" in2="BackgroundImageFix" result="shape"/><feGaussianBlur stdDeviation="277.5" result="effect1_foregroundBlur_2070_232"/></filter><clipPath id="a"><path fill="#fff" d="M0 0h1920v2290H0z"/></clipPath></defs></svg>