<svg xmlns="http://www.w3.org/2000/svg" width="25" height="25" fill="none"><g clip-path="url(#a)"><path d="m12.194 9.043.583-.506.984-.856V1.937c0-.752-.701-1.361-1.567-1.361-.865 0-1.567.609-1.567 1.361v5.744l.985.856.582.506Zm0 7.056-.582.506-.985.856v5.743c0 .752.702 1.362 1.567 1.362.866 0 1.567-.61 1.567-1.362v-5.743l-.984-.856-.583-.506Zm4.11-4.189.856-.986h5.741c.752 0 1.361.702 1.361 1.568 0 .866-.609 1.568-1.361 1.568H17.16l-.856-.985-.505-.583.505-.582Zm-7.558.582-.505-.582-.856-.986H1.644c-.751 0-1.361.702-1.361 1.568 0 .866.61 1.568 1.361 1.568h5.741l.856-.985.505-.583Zm.884.784 1.937 1.938-.509.51-5.302 5.305a1.368 1.368 0 0 1-1.937 0 1.37 1.37 0 0 1 0-1.938l5.302-5.305.509-.51Zm3.348-3.349 1.937 1.938.509-.509 5.303-5.305a1.372 1.372 0 0 0-.969-2.339c-.351 0-.701.133-.969.401l-5.302 5.305-.509.51Zm-1.019.426 1.904 1.904 1.346 1.347 5.211 5.213a1.349 1.349 0 0 1-.952 2.299 1.34 1.34 0 0 1-.952-.394l-5.211-5.213-1.346-1.347-1.904-1.905-1.346-1.347-5.211-5.213a1.348 1.348 0 0 1 .952-2.299c.345 0 .689.131.952.395l5.211 5.213 1.346 1.347Z" fill="#fff"/></g><defs><clipPath id="a"><path fill="#fff" d="M0 0h25v25H0z"/></clipPath></defs></svg>