<svg width="54" height="54" fill="none" xmlns="http://www.w3.org/2000/svg"><g clip-path="url(#a)"><path d="M22.545 53.73C9.72 51.435 0 40.365 0 27 0 12.15 12.15 0 27 0s27 12.15 27 27c0 13.365-9.72 24.435-22.545 26.73l-1.485-1.215h-5.94l-1.485 1.215Z" fill="url(#b)"/><path d="M37.53 34.56 38.745 27H31.59v-5.265c0-2.16.81-3.78 4.05-3.78h3.51V11.07c-1.89-.27-4.05-.54-5.94-.54-6.21 0-10.53 3.78-10.53 10.53V27h-6.75v7.56h6.75v19.035c1.485.27 2.97.405 4.455.405 1.485 0 2.97-.135 4.455-.405V34.56h5.94Z" fill="#fff"/></g><defs><linearGradient id="b" x1="27.001" y1="52.122" x2="27.001" y2="-.01" gradientUnits="userSpaceOnUse"><stop stop-color="#0062E0"/><stop offset="1" stop-color="#19AFFF"/></linearGradient><clipPath id="a"><path fill="#fff" d="M0 0h54v54H0z"/></clipPath></defs></svg>