<svg xmlns="http://www.w3.org/2000/svg" width="54" height="54" fill="none"><path d="M27.009 0c-11.272 0-14.57.012-15.21.065-2.313.192-3.753.556-5.32 1.337a10.778 10.778 0 0 0-3.103 2.272C1.663 5.453.624 7.641.249 10.243c-.183 1.262-.236 1.52-.247 7.97-.004 2.15 0 4.98 0 8.776 0 11.267.012 14.56.066 15.2.187 2.252.54 3.669 1.288 5.218 1.428 2.966 4.157 5.193 7.371 6.024 1.113.287 2.343.444 3.92.52.67.028 7.485.049 14.304.049 6.82 0 13.639-.008 14.29-.041 1.828-.087 2.89-.229 4.063-.532a11.306 11.306 0 0 0 7.371-6.036c.733-1.512 1.105-2.983 1.273-5.117.037-.465.052-7.883.052-15.292 0-7.41-.017-14.813-.053-15.279-.17-2.168-.542-3.626-1.299-5.168a10.704 10.704 0 0 0-2.311-3.167c-1.786-1.706-3.97-2.745-6.574-3.12C42.502.065 42.251.01 35.797 0h-8.788Z" fill="url(#a)"/><path d="M27.009 0c-11.272 0-14.57.012-15.21.065-2.313.192-3.753.556-5.32 1.337a10.778 10.778 0 0 0-3.103 2.272C1.663 5.453.624 7.641.249 10.243c-.183 1.262-.236 1.52-.247 7.97-.004 2.15 0 4.98 0 8.776 0 11.267.012 14.56.066 15.2.187 2.252.54 3.669 1.288 5.218 1.428 2.966 4.157 5.193 7.371 6.024 1.113.287 2.343.444 3.92.52.67.028 7.485.049 14.304.049 6.82 0 13.639-.008 14.29-.041 1.828-.087 2.89-.229 4.063-.532a11.306 11.306 0 0 0 7.371-6.036c.733-1.512 1.105-2.983 1.273-5.117.037-.465.052-7.883.052-15.292 0-7.41-.017-14.813-.053-15.279-.17-2.168-.542-3.626-1.299-5.168a10.704 10.704 0 0 0-2.311-3.167c-1.786-1.706-3.97-2.745-6.574-3.12C42.502.065 42.251.01 35.797 0h-8.788Z" fill="url(#b)"/><path d="M27.003 8.82c-4.938 0-5.557.022-7.496.11-1.936.089-3.257.395-4.413.845a8.902 8.902 0 0 0-3.22 2.096 8.926 8.926 0 0 0-2.098 3.22c-.451 1.156-.758 2.478-.845 4.412-.087 1.94-.11 2.56-.11 7.497 0 4.937.023 5.555.11 7.494.09 1.936.396 3.257.845 4.413a8.908 8.908 0 0 0 2.097 3.22 8.902 8.902 0 0 0 3.22 2.098c1.156.45 2.477.756 4.412.845 1.94.088 2.559.11 7.496.11s5.555-.022 7.494-.11c1.936-.089 3.258-.395 4.415-.845a8.895 8.895 0 0 0 3.218-2.098 8.924 8.924 0 0 0 2.098-3.22c.447-1.156.754-2.478.845-4.412.087-1.94.11-2.558.11-7.495s-.023-5.557-.11-7.496c-.091-1.936-.398-3.257-.845-4.413a8.923 8.923 0 0 0-2.098-3.22 8.885 8.885 0 0 0-3.22-2.096c-1.158-.45-2.48-.756-4.415-.845-1.94-.088-2.557-.11-7.496-.11h.006Zm-1.631 3.276h1.63c4.855 0 5.43.018 7.347.105 1.773.08 2.735.377 3.375.626.849.33 1.454.723 2.09 1.36a5.641 5.641 0 0 1 1.36 2.09c.249.64.545 1.602.626 3.375.087 1.916.106 2.492.106 7.344s-.019 5.427-.106 7.344c-.081 1.772-.377 2.734-.626 3.374a5.622 5.622 0 0 1-1.36 2.089 5.623 5.623 0 0 1-2.09 1.36c-.64.25-1.602.545-3.375.626-1.916.087-2.492.106-7.346.106-4.855 0-5.43-.019-7.346-.106-1.773-.082-2.735-.378-3.376-.627a5.63 5.63 0 0 1-2.09-1.36 5.635 5.635 0 0 1-1.361-2.09c-.249-.64-.546-1.601-.626-3.374-.087-1.916-.105-2.492-.105-7.347 0-4.854.018-5.427.105-7.344.08-1.772.377-2.734.626-3.375a5.633 5.633 0 0 1 1.36-2.09 5.642 5.642 0 0 1 2.09-1.361c.642-.25 1.604-.546 3.377-.627 1.677-.076 2.327-.098 5.715-.102v.004Zm11.335 3.019a2.181 2.181 0 1 0 0 4.364 2.181 2.181 0 0 0 0-4.365v.001Zm-9.704 2.549A9.336 9.336 0 0 0 17.667 27c0 5.156 4.18 9.334 9.336 9.334A9.334 9.334 0 0 0 36.337 27c0-5.156-4.178-9.336-9.334-9.336Zm0 3.276a6.06 6.06 0 1 1 0 12.12 6.06 6.06 0 0 1 0-12.12Z" fill="#fff"/><defs><radialGradient id="a" cx="0" cy="0" r="1" gradientUnits="userSpaceOnUse" gradientTransform="matrix(0 -53.518 49.7759 0 14.344 58.16)"><stop stop-color="#FD5"/><stop offset=".1" stop-color="#FD5"/><stop offset=".5" stop-color="#FF543E"/><stop offset="1" stop-color="#C837AB"/></radialGradient><radialGradient id="b" cx="0" cy="0" r="1" gradientUnits="userSpaceOnUse" gradientTransform="matrix(4.69552 23.45746 -96.69245 19.3551 -9.045 3.89)"><stop stop-color="#3771C8"/><stop offset=".128" stop-color="#3771C8"/><stop offset="1" stop-color="#60F" stop-opacity="0"/></radialGradient></defs></svg>