<svg xmlns="http://www.w3.org/2000/svg" width="161" height="20" fill="none"><path d="m0 13.795 3.629-.554c.184.886.582 1.625 1.19 2.216.629.591 1.47 1.034 2.522 1.33 1.07.295 2.345.443 3.822.443 1.2 0 2.235-.065 3.103-.194.886-.13 1.607-.314 2.16-.554.573-.258.989-.563 1.247-.914.277-.37.416-.776.416-1.219 0-.61-.167-1.099-.499-1.468-.332-.37-.868-.656-1.607-.859-.72-.203-1.68-.37-2.88-.498l-5.07-.36c-1.182-.13-2.234-.324-3.158-.582-.923-.259-1.699-.6-2.327-1.025a4.26 4.26 0 0 1-1.385-1.551c-.314-.61-.47-1.33-.47-2.161 0-.905.212-1.718.637-2.438.424-.72 1.062-1.33 1.911-1.828.85-.499 1.893-.886 3.13-1.163C7.608.139 9.04 0 10.665 0c2.142 0 3.943.222 5.402.665 1.458.443 2.613 1.099 3.462 1.967.85.85 1.413 1.92 1.69 3.213l-3.601.526c-.296-1.2-.997-2.096-2.105-2.687-1.109-.61-2.743-.914-4.904-.914-1.09 0-2.04.065-2.853.194-.794.13-1.45.314-1.967.554-.517.24-.904.536-1.163.886a1.89 1.89 0 0 0-.36 1.136c0 .591.175 1.062.526 1.413.37.332.905.6 1.607.803.72.185 1.643.342 2.77.471l5.18.388c1.625.185 2.982.48 4.072.886 1.09.407 1.902.98 2.438 1.718.554.72.83 1.653.83 2.798 0 .96-.23 1.81-.692 2.548-.443.739-1.108 1.367-1.994 1.884-.887.517-1.995.905-3.324 1.163-1.312.259-2.835.388-4.571.388-1.625 0-3.084-.13-4.377-.388-1.274-.258-2.373-.637-3.296-1.135-.923-.518-1.671-1.164-2.244-1.94-.572-.775-.97-1.69-1.191-2.742ZM23.759 19.695V.305h3.324v19.39h-3.324Zm22.853 0V.305h3.324v19.39h-3.324Zm-8.2-3.324h-3.074L25.42 2.521 24.23.305h3.324l9.75 13.545h-.803L46.197.305h3.157l-1.19 2.243-9.751 13.823ZM52.39 19.695V.305h3.324v19.39H52.39Zm22.853 0V.305h3.325v19.39h-3.325Zm-8.199-3.324h-3.075l-9.917-13.85-1.19-2.216h3.323l9.751 13.545h-.803L74.828.305h3.158l-1.191 2.243-9.751 13.823ZM80.19 13.795l3.63-.554c.184.886.581 1.625 1.19 2.216.628.591 1.469 1.034 2.521 1.33 1.072.295 2.346.443 3.823.443 1.2 0 2.235-.065 3.103-.194.886-.13 1.606-.314 2.16-.554.573-.258.988-.563 1.247-.914.277-.37.415-.776.415-1.219 0-.61-.166-1.099-.498-1.468-.333-.37-.868-.656-1.607-.859-.72-.203-1.68-.37-2.88-.498l-5.07-.36c-1.182-.13-2.235-.324-3.158-.582-.923-.259-1.699-.6-2.327-1.025a4.26 4.26 0 0 1-1.385-1.551c-.314-.61-.47-1.33-.47-2.161 0-.905.212-1.718.636-2.438.425-.72 1.062-1.33 1.912-1.828.85-.499 1.892-.886 3.13-1.163C87.799.139 89.23 0 90.856 0c2.142 0 3.942.222 5.401.665 1.459.443 2.613 1.099 3.463 1.967.849.85 1.412 1.92 1.689 3.213l-3.6.526c-.296-1.2-.998-2.096-2.106-2.687-1.108-.61-2.742-.914-4.903-.914-1.09 0-2.04.065-2.853.194-.794.13-1.45.314-1.967.554-.517.24-.905.536-1.163.886a1.89 1.89 0 0 0-.36 1.136c0 .591.175 1.062.526 1.413.37.332.905.6 1.606.803.72.185 1.644.342 2.77.471l5.18.388c1.626.185 2.983.48 4.073.886 1.09.407 1.902.98 2.437 1.718.554.72.831 1.653.831 2.798 0 .96-.23 1.81-.692 2.548-.443.739-1.108 1.367-1.995 1.884-.886.517-1.994.905-3.324 1.163-1.31.259-2.834.388-4.57.388-1.625 0-3.084-.13-4.377-.388-1.274-.258-2.373-.637-3.296-1.135-.924-.518-1.672-1.164-2.244-1.94-.573-.775-.97-1.69-1.191-2.742ZM111.354 19.695V.97h3.573v18.725h-3.573Zm-8.92-16.565V.305h21.469V3.13h-21.469ZM139.967 19.695l-9.113-17.147h1.163l-9.086 17.147h-3.739L129.69.305h3.629l10.526 19.39h-3.878Zm-15.678-4.764.637-2.743h13.13l.637 2.743h-14.404ZM147.476 19.695v-8.892h3.546v8.892h-3.546ZM160.385.305 150.329 12.88l-2.465-.471L138.196.305h4.349l7.396 9.446h-1.246l7.534-9.446h4.156Z" fill="#FF276C"/></svg>