<svg width="1221" height="782" fill="none" xmlns="http://www.w3.org/2000/svg"><mask id="a" style="mask-type:alpha" maskUnits="userSpaceOnUse" x="314" y="314" width="593" height="468"><path transform="rotate(-180 907 781.519)" fill="#D9D9D9" d="M907 781.519h593v467.519H907z"/></mask><g style="mix-blend-mode:overlay" mask="url(#a)"><mask id="c" fill="#fff"><path d="M1583.93 127.802v216.064H659.174V127.802h924.756Z"/></mask><path d="M1583.93 339.545H659.174v8.642h924.756v-8.642Z" fill="url(#b)" mask="url(#c)"/><mask id="e" fill="#fff"><path d="M816.905 339.544h216.065v216.064H816.905V339.544Z"/></mask><path d="M1028.65 339.544v216.064h8.64V339.544h-8.64Z" fill="url(#d)" mask="url(#e)"/><mask id="g" fill="#fff"><path d="M447.435 127.802h216.064v216.064H447.435V127.802Z"/></mask><path d="M659.177 127.802v216.064h8.643V127.802h-8.643Z" fill="url(#f)" mask="url(#g)"/><mask id="i" fill="#fff"><path d="M685.099 343.864h216.064V127.8H685.099v216.064Z"/></mask><path d="M896.842 343.864V127.8h8.643v216.064h-8.643Z" fill="url(#h)" mask="url(#i)"/><mask id="k" fill="#fff"><path d="M987.576 767.352H771.512V551.288h216.064v216.064Z"/></mask><path d="M775.833 767.352V551.288h-8.642v216.064h8.642Z" fill="url(#j)" mask="url(#k)"/><mask id="m" fill="#fff"><path d="M555.444 767.352V551.288h216.064v216.064H555.444Z"/></mask><path d="M555.444 555.609h216.064v-8.643H555.444v8.643Z" fill="url(#l)" mask="url(#m)"/><mask id="o" fill="#fff"><path d="M1106.42 339.546V555.61H181.663V339.546h924.757Z"/></mask><path d="M1106.42 551.288H181.663v8.643h924.757v-8.643Z" fill="url(#n)" mask="url(#o)"/><mask id="q" fill="#fff"><path d="M339.394 551.287h216.064v216.064H339.394V551.287Z"/></mask><path d="M551.136 551.287v216.064h8.643V551.287h-8.643Z" fill="url(#p)" mask="url(#q)"/><mask id="s" fill="#fff"><path d="M447.419 339.544h216.064v216.064H447.419V339.544Z"/></mask><path d="M659.161 339.544v216.064h8.643V339.544h-8.643Z" fill="url(#r)" mask="url(#s)"/><mask id="u" fill="#fff"><path d="M208 556h216V-16H208v572Z"/></mask><path d="M419.679 556V-16h8.642v572h-8.642Z" fill="url(#t)" mask="url(#u)"/></g><defs><linearGradient id="b" x1="1145.32" y1="343.866" x2="1583.93" y2="343.866" gradientUnits="userSpaceOnUse"><stop stop-color="#fff"/><stop offset="1" stop-color="#fff" stop-opacity="0"/></linearGradient><linearGradient id="d" x1="1032.97" y1="555.608" x2="1032.97" y2="339.544" gradientUnits="userSpaceOnUse"><stop stop-color="#fff"/><stop offset="1" stop-color="#fff" stop-opacity="0"/></linearGradient><linearGradient id="f" x1="663.499" y1="343.866" x2="663.499" y2="127.802" gradientUnits="userSpaceOnUse"><stop stop-color="#fff"/><stop offset="1" stop-color="#fff" stop-opacity="0"/></linearGradient><linearGradient id="h" x1="901.163" y1="127.8" x2="901.163" y2="343.864" gradientUnits="userSpaceOnUse"><stop stop-color="#fff"/><stop offset="1" stop-color="#fff" stop-opacity="0"/></linearGradient><linearGradient id="j" x1="771.512" y1="551.288" x2="771.512" y2="767.352" gradientUnits="userSpaceOnUse"><stop stop-color="#fff"/><stop offset="1" stop-color="#fff" stop-opacity="0"/></linearGradient><linearGradient id="l" x1="771.508" y1="551.288" x2="555.444" y2="551.288" gradientUnits="userSpaceOnUse"><stop stop-color="#fff"/><stop offset="1" stop-color="#fff" stop-opacity="0"/></linearGradient><linearGradient id="n" x1="667.807" y1="555.61" x2="1106.42" y2="555.61" gradientUnits="userSpaceOnUse"><stop stop-color="#fff"/><stop offset="1" stop-color="#fff" stop-opacity="0"/></linearGradient><linearGradient id="p" x1="555.458" y1="767.351" x2="555.458" y2="551.287" gradientUnits="userSpaceOnUse"><stop stop-color="#fff"/><stop offset="1" stop-color="#fff" stop-opacity="0"/></linearGradient><linearGradient id="r" x1="663.483" y1="555.608" x2="663.483" y2="339.544" gradientUnits="userSpaceOnUse"><stop stop-color="#fff"/><stop offset="1" stop-color="#fff" stop-opacity="0"/></linearGradient><linearGradient id="t" x1="424" y1="-16" x2="424" y2="556" gradientUnits="userSpaceOnUse"><stop stop-color="#fff"/><stop offset="1" stop-color="#fff" stop-opacity="0"/></linearGradient></defs></svg>