<svg width="875" height="654" fill="none" xmlns="http://www.w3.org/2000/svg"><mask id="a" style="mask-type:alpha" maskUnits="userSpaceOnUse" x="-32" y="0" width="593" height="468"><path fill="#D9D9D9" d="M-32 0h593v467.519H-32z"/></mask><g style="mix-blend-mode:overlay" mask="url(#a)"><mask id="c" fill="#fff"><path d="M-708.928 653.717V437.653h924.754v216.064h-924.754Z"/></mask><path d="M-708.928 441.974h924.754v-8.642h-924.754v8.642Z" fill="url(#b)" mask="url(#c)"/><mask id="e" fill="#fff"><path d="M58.095 441.975H-157.97V225.911H58.095v216.064Z"/></mask><path d="M-153.648 441.975V225.911h-8.643v216.064h8.643Z" fill="url(#d)" mask="url(#e)"/><mask id="g" fill="#fff"><path d="M427.565 653.717H211.501V437.653h216.064v216.064Z"/></mask><path d="M215.823 653.717V437.653h-8.643v216.064h8.643Z" fill="url(#f)" mask="url(#g)"/><mask id="i" fill="#fff"><path d="M189.901 437.655H-26.163v216.064H189.9V437.655Z"/></mask><path d="M-21.842 437.655v216.064h-8.643V437.655h8.643Z" fill="url(#h)" mask="url(#i)"/><mask id="k" fill="#fff"><path d="M-112.576 14.167h216.064v216.064h-216.064V14.167Z"/></mask><path d="M99.167 14.167v216.064h8.642V14.167h-8.642Z" fill="url(#j)" mask="url(#k)"/><mask id="m" fill="#fff"><path d="M319.556 14.167v216.064H103.492V14.167h216.064Z"/></mask><path d="M319.556 225.91H103.492v8.643h216.064v-8.643Z" fill="url(#l)" mask="url(#m)"/><mask id="o" fill="#fff"><path d="M-231.417 441.973V225.909h924.754v216.064h-924.754Z"/></mask><path d="M-231.417 230.23h924.754v-8.642h-924.754v8.642Z" fill="url(#n)" mask="url(#o)"/><mask id="q" fill="#fff"><path d="M535.606 230.231H319.542V14.167h216.064v216.064Z"/></mask><path d="M323.864 230.231V14.167h-8.643v216.064h8.643Z" fill="url(#p)" mask="url(#q)"/><mask id="s" fill="#fff"><path d="M427.581 441.975H211.517V225.911h216.064v216.064Z"/></mask><path d="M215.839 441.975V225.911h-8.643v216.064h8.643Z" fill="url(#r)" mask="url(#s)"/><mask id="u" fill="#fff"><path d="M667.412 225.909H451.348v216.064h216.064V225.909Z"/></mask><path d="M455.67 225.909v216.064h-8.643V225.909h8.643Z" fill="url(#t)" mask="url(#u)"/></g><defs><linearGradient id="b" x1="-270.318" y1="437.653" x2="-708.928" y2="437.653" gradientUnits="userSpaceOnUse"><stop stop-color="#fff"/><stop offset="1" stop-color="#fff" stop-opacity="0"/></linearGradient><linearGradient id="d" x1="-157.969" y1="225.911" x2="-157.969" y2="441.975" gradientUnits="userSpaceOnUse"><stop stop-color="#fff"/><stop offset="1" stop-color="#fff" stop-opacity="0"/></linearGradient><linearGradient id="f" x1="211.501" y1="437.653" x2="211.501" y2="653.717" gradientUnits="userSpaceOnUse"><stop stop-color="#fff"/><stop offset="1" stop-color="#fff" stop-opacity="0"/></linearGradient><linearGradient id="h" x1="-26.163" y1="653.719" x2="-26.163" y2="437.655" gradientUnits="userSpaceOnUse"><stop stop-color="#fff"/><stop offset="1" stop-color="#fff" stop-opacity="0"/></linearGradient><linearGradient id="j" x1="103.488" y1="230.231" x2="103.488" y2="14.167" gradientUnits="userSpaceOnUse"><stop stop-color="#fff"/><stop offset="1" stop-color="#fff" stop-opacity="0"/></linearGradient><linearGradient id="l" x1="103.492" y1="230.231" x2="319.556" y2="230.231" gradientUnits="userSpaceOnUse"><stop stop-color="#fff"/><stop offset="1" stop-color="#fff" stop-opacity="0"/></linearGradient><linearGradient id="n" x1="207.193" y1="225.909" x2="-231.417" y2="225.909" gradientUnits="userSpaceOnUse"><stop stop-color="#fff"/><stop offset="1" stop-color="#fff" stop-opacity="0"/></linearGradient><linearGradient id="p" x1="319.542" y1="14.167" x2="319.542" y2="230.231" gradientUnits="userSpaceOnUse"><stop stop-color="#fff"/><stop offset="1" stop-color="#fff" stop-opacity="0"/></linearGradient><linearGradient id="r" x1="211.517" y1="225.911" x2="211.517" y2="441.975" gradientUnits="userSpaceOnUse"><stop stop-color="#fff"/><stop offset="1" stop-color="#fff" stop-opacity="0"/></linearGradient><linearGradient id="t" x1="451.348" y1="441.973" x2="451.348" y2="225.909" gradientUnits="userSpaceOnUse"><stop stop-color="#fff"/><stop offset="1" stop-color="#fff" stop-opacity="0"/></linearGradient></defs></svg>