<svg width="1920" height="732" fill="none" xmlns="http://www.w3.org/2000/svg"><g clip-path="url(#a)"><path fill="#1E1E1E" d="M0 0h1920v732H0z"/><g style="mix-blend-mode:screen" opacity=".19" filter="url(#b)"><path d="M315 183.791c0-58.584 45.069-107.31 103.476-111.869l487.176-38.03a640.517 640.517 0 0 1 99.698 0l487.17 38.03c58.41 4.56 103.48 53.285 103.48 111.869C1596 245.762 1545.76 296 1483.79 296H427.209C365.238 296 315 245.762 315 183.791Z" fill="#FF276C"/></g><g style="mix-blend-mode:screen" opacity=".15" filter="url(#c)"><path d="M489 186.036c0-32.648 25.333-59.696 57.912-61.83L954.5 97.5l409.58 26.721c32.58 2.126 57.92 29.173 57.92 61.824 0 34.217-27.74 61.955-61.96 61.955H550.963C516.742 248 489 220.258 489 186.036Z" fill="#FF276C"/></g><g style="mix-blend-mode:screen" opacity=".05" filter="url(#d)"><path d="M489 186.053c0-32.653 25.346-59.7 57.931-61.816L958.5 97.5l405.6 26.69c32.57 2.143 57.9 29.191 57.9 61.838 0 34.226-27.75 61.972-61.97 61.972H550.947C516.735 248 489 220.265 489 186.053Z" fill="#FF80A8"/></g><mask id="e" style="mask-type:alpha" maskUnits="userSpaceOnUse" x="-32" y="-162" width="593" height="468"><path fill="#D9D9D9" d="M-32-162h593v467.519H-32z"/></mask><g style="mix-blend-mode:overlay" mask="url(#e)"><mask id="g" fill="#fff"><path d="M-708.928 491.717V275.653h924.754v216.064h-924.754Z"/></mask><path d="M-708.928 279.974h924.754v-8.643l-924.754.001v8.642Z" fill="url(#f)" mask="url(#g)"/><mask id="i" fill="#fff"><path d="M58.095 279.975H-157.97V63.911H58.095v216.064Z"/></mask><path d="M-153.648 279.975V63.911h-8.643v216.064h8.643Z" fill="url(#h)" mask="url(#i)"/><mask id="k" fill="#fff"><path d="M427.566 491.717H211.502V275.653h216.064v216.064Z"/></mask><path d="M215.823 491.717V275.653h-8.643v216.064h8.643Z" fill="url(#j)" mask="url(#k)"/><mask id="m" fill="#fff"><path d="M189.901 275.655H-26.163v216.064H189.9V275.655Z"/></mask><path d="M-21.842 275.655v216.064h-8.643V275.655h8.643Z" fill="url(#l)" mask="url(#m)"/><mask id="o" fill="#fff"><path d="M-112.576-147.833h216.064V68.231h-216.064v-216.064Z"/></mask><path d="M99.167-147.833V68.231h8.642v-216.064h-8.642Z" fill="url(#n)" mask="url(#o)"/><mask id="q" fill="#fff"><path d="M319.556-147.833V68.231H103.492v-216.064h216.064Z"/></mask><path d="M319.556 63.91H103.492v8.642h216.064V63.91Z" fill="url(#p)" mask="url(#q)"/><mask id="s" fill="#fff"><path d="M-231.417 279.973V63.909h924.754v216.064h-924.754Z"/></mask><path d="M-231.417 68.23h924.754v-8.642h-924.754v8.642Z" fill="url(#r)" mask="url(#s)"/><mask id="u" fill="#fff"><path d="M535.606 68.231H319.542v-216.064h216.064V68.231Z"/></mask><path d="M323.864 68.231v-216.064h-8.643V68.232h8.643Z" fill="url(#t)" mask="url(#u)"/><mask id="w" fill="#fff"><path d="M427.581 279.975H211.517V63.911h216.064v216.064Z"/></mask><path d="M215.839 279.975V63.911h-8.643v216.064h8.643Z" fill="url(#v)" mask="url(#w)"/><mask id="y" fill="#fff"><path d="M667.412 63.909H451.348v216.064h216.064V63.909Z"/></mask><path d="M455.67 63.909v216.064h-8.643V63.909h8.643Z" fill="url(#x)" mask="url(#y)"/></g><mask id="z" style="mask-type:alpha" maskUnits="userSpaceOnUse" x="984" y="19" width="593" height="468"><path transform="rotate(-180 1577 486.519)" fill="#D9D9D9" d="M1577 486.519h593v467.519h-593z"/></mask><g style="mix-blend-mode:overlay" mask="url(#z)"><mask id="B" fill="#fff"><path d="M2253.93-167.198V48.866h-924.76v-216.064h924.76Z"/></mask><path d="M2253.93 44.545h-924.76v8.642h924.76v-8.642Z" fill="url(#A)" mask="url(#B)"/><mask id="D" fill="#fff"><path d="M1486.91 44.544h216.06v216.064h-216.06V44.544Z"/></mask><path d="M1698.65 44.544v216.064h8.64V44.544h-8.64Z" fill="url(#C)" mask="url(#D)"/><mask id="F" fill="#fff"><path d="M1117.43-167.198h216.07V48.866h-216.07v-216.064Z"/></mask><path d="M1329.18-167.198V48.866h8.64v-216.064h-8.64Z" fill="url(#E)" mask="url(#F)"/><mask id="H" fill="#fff"><path d="M1355.1 48.864h216.06V-167.2H1355.1V48.864Z"/></mask><path d="M1566.84 48.864V-167.2h8.64V48.864h-8.64Z" fill="url(#G)" mask="url(#H)"/><mask id="J" fill="#fff"><path d="M1657.58 472.352h-216.07V256.288h216.07v216.064Z"/></mask><path d="M1445.83 472.352V256.288h-8.64v216.064h8.64Z" fill="url(#I)" mask="url(#J)"/><mask id="L" fill="#fff"><path d="M1225.44 472.352V256.288h216.07v216.064h-216.07Z"/></mask><path d="M1225.44 260.609h216.07v-8.643h-216.07v8.643Z" fill="url(#K)" mask="url(#L)"/><mask id="N" fill="#fff"><path d="M1776.42 44.546V260.61H851.663V44.546h924.757Z"/></mask><path d="M1776.42 256.288H851.663v8.643h924.757v-8.643Z" fill="url(#M)" mask="url(#N)"/><mask id="P" fill="#fff"><path d="M1009.39 256.287h216.07v216.064h-216.07V256.287Z"/></mask><path d="M1221.14 256.287v216.064h8.64V256.287h-8.64Z" fill="url(#O)" mask="url(#P)"/><mask id="R" fill="#fff"><path d="M1117.42 44.544h216.06v216.064h-216.06V44.544Z"/></mask><path d="M1329.16 44.544v216.064h8.64V44.544h-8.64Z" fill="url(#Q)" mask="url(#R)"/><mask id="T" fill="#fff"><path d="M878 261h216v-572H878v572Z"/></mask><path d="M1089.68 261v-572h8.64v572h-8.64Z" fill="url(#S)" mask="url(#T)"/></g></g><defs><linearGradient id="f" x1="-270.318" y1="275.653" x2="-708.928" y2="275.653" gradientUnits="userSpaceOnUse"><stop stop-color="#fff"/><stop offset="1" stop-color="#fff" stop-opacity="0"/></linearGradient><linearGradient id="h" x1="-157.969" y1="63.911" x2="-157.969" y2="279.975" gradientUnits="userSpaceOnUse"><stop stop-color="#fff"/><stop offset="1" stop-color="#fff" stop-opacity="0"/></linearGradient><linearGradient id="j" x1="211.502" y1="275.653" x2="211.502" y2="491.717" gradientUnits="userSpaceOnUse"><stop stop-color="#fff"/><stop offset="1" stop-color="#fff" stop-opacity="0"/></linearGradient><linearGradient id="l" x1="-26.163" y1="491.719" x2="-26.163" y2="275.655" gradientUnits="userSpaceOnUse"><stop stop-color="#fff"/><stop offset="1" stop-color="#fff" stop-opacity="0"/></linearGradient><linearGradient id="n" x1="103.488" y1="68.231" x2="103.488" y2="-147.833" gradientUnits="userSpaceOnUse"><stop stop-color="#fff"/><stop offset="1" stop-color="#fff" stop-opacity="0"/></linearGradient><linearGradient id="p" x1="103.492" y1="68.231" x2="319.556" y2="68.231" gradientUnits="userSpaceOnUse"><stop stop-color="#fff"/><stop offset="1" stop-color="#fff" stop-opacity="0"/></linearGradient><linearGradient id="r" x1="207.193" y1="63.909" x2="-231.417" y2="63.909" gradientUnits="userSpaceOnUse"><stop stop-color="#fff"/><stop offset="1" stop-color="#fff" stop-opacity="0"/></linearGradient><linearGradient id="t" x1="319.542" y1="-147.833" x2="319.542" y2="68.231" gradientUnits="userSpaceOnUse"><stop stop-color="#fff"/><stop offset="1" stop-color="#fff" stop-opacity="0"/></linearGradient><linearGradient id="v" x1="211.517" y1="63.911" x2="211.517" y2="279.975" gradientUnits="userSpaceOnUse"><stop stop-color="#fff"/><stop offset="1" stop-color="#fff" stop-opacity="0"/></linearGradient><linearGradient id="x" x1="451.348" y1="279.973" x2="451.348" y2="63.909" gradientUnits="userSpaceOnUse"><stop stop-color="#fff"/><stop offset="1" stop-color="#fff" stop-opacity="0"/></linearGradient><linearGradient id="A" x1="1815.32" y1="48.866" x2="2253.93" y2="48.866" gradientUnits="userSpaceOnUse"><stop stop-color="#fff"/><stop offset="1" stop-color="#fff" stop-opacity="0"/></linearGradient><linearGradient id="C" x1="1702.97" y1="260.608" x2="1702.97" y2="44.544" gradientUnits="userSpaceOnUse"><stop stop-color="#fff"/><stop offset="1" stop-color="#fff" stop-opacity="0"/></linearGradient><linearGradient id="E" x1="1333.5" y1="48.866" x2="1333.5" y2="-167.198" gradientUnits="userSpaceOnUse"><stop stop-color="#fff"/><stop offset="1" stop-color="#fff" stop-opacity="0"/></linearGradient><linearGradient id="G" x1="1571.16" y1="-167.2" x2="1571.16" y2="48.864" gradientUnits="userSpaceOnUse"><stop stop-color="#fff"/><stop offset="1" stop-color="#fff" stop-opacity="0"/></linearGradient><linearGradient id="I" x1="1441.51" y1="256.288" x2="1441.51" y2="472.352" gradientUnits="userSpaceOnUse"><stop stop-color="#fff"/><stop offset="1" stop-color="#fff" stop-opacity="0"/></linearGradient><linearGradient id="K" x1="1441.51" y1="256.288" x2="1225.44" y2="256.288" gradientUnits="userSpaceOnUse"><stop stop-color="#fff"/><stop offset="1" stop-color="#fff" stop-opacity="0"/></linearGradient><linearGradient id="M" x1="1337.81" y1="260.61" x2="1776.42" y2="260.61" gradientUnits="userSpaceOnUse"><stop stop-color="#fff"/><stop offset="1" stop-color="#fff" stop-opacity="0"/></linearGradient><linearGradient id="O" x1="1225.46" y1="472.351" x2="1225.46" y2="256.287" gradientUnits="userSpaceOnUse"><stop stop-color="#fff"/><stop offset="1" stop-color="#fff" stop-opacity="0"/></linearGradient><linearGradient id="Q" x1="1333.48" y1="260.608" x2="1333.48" y2="44.544" gradientUnits="userSpaceOnUse"><stop stop-color="#fff"/><stop offset="1" stop-color="#fff" stop-opacity="0"/></linearGradient><linearGradient id="S" x1="1094" y1="-311" x2="1094" y2="261" gradientUnits="userSpaceOnUse"><stop stop-color="#fff"/><stop offset="1" stop-color="#fff" stop-opacity="0"/></linearGradient><filter id="b" x="-40" y="-323.051" width="1991" height="974.051" filterUnits="userSpaceOnUse" color-interpolation-filters="sRGB"><feFlood flood-opacity="0" result="BackgroundImageFix"/><feBlend in="SourceGraphic" in2="BackgroundImageFix" result="shape"/><feGaussianBlur stdDeviation="177.5" result="effect1_foregroundBlur_2043_392"/></filter><filter id="c" x="334" y="-57.5" width="1243" height="460.5" filterUnits="userSpaceOnUse" color-interpolation-filters="sRGB"><feFlood flood-opacity="0" result="BackgroundImageFix"/><feBlend in="SourceGraphic" in2="BackgroundImageFix" result="shape"/><feGaussianBlur stdDeviation="77.5" result="effect1_foregroundBlur_2043_392"/></filter><filter id="d" x="389" y="-2.5" width="1133" height="350.5" filterUnits="userSpaceOnUse" color-interpolation-filters="sRGB"><feFlood flood-opacity="0" result="BackgroundImageFix"/><feBlend in="SourceGraphic" in2="BackgroundImageFix" result="shape"/><feGaussianBlur stdDeviation="50" result="effect1_foregroundBlur_2043_392"/></filter><clipPath id="a"><path fill="#fff" d="M0 0h1920v732H0z"/></clipPath></defs></svg>