<svg width="54" height="54" fill="none" xmlns="http://www.w3.org/2000/svg"><g clip-path="url(#a)"><path d="M27 54c14.912 0 27-12.088 27-27S41.912 0 27 0 0 12.088 0 27s12.088 27 27 27Z" fill="url(#b)"/><path d="m18.277 28.974 3.203 8.866s.4.83.83.83c.428 0 6.807-6.636 6.807-6.636l7.093-13.7-17.82 8.351-.113 2.289Z" fill="#C8DAEA"/><path d="m22.524 31.248-.615 6.535s-.257 2.002 1.745 0c2.002-2.003 3.918-3.547 3.918-3.547" fill="#A9C6D8"/><path d="m18.334 29.29-6.589-2.147s-.787-.32-.534-1.044c.052-.15.158-.276.473-.495 1.46-1.018 27.024-10.206 27.024-10.206s.721-.243 1.147-.081a.621.621 0 0 1 .424.462c.046.19.065.386.057.582-.002.169-.022.326-.038.572-.155 2.512-4.815 21.26-4.815 21.26s-.278 1.098-1.277 1.135a1.83 1.83 0 0 1-1.333-.516c-1.96-1.685-8.735-6.238-10.232-7.24a.287.287 0 0 1-.122-.202c-.021-.105.093-.236.093-.236s11.796-10.485 12.11-11.586c.024-.085-.067-.127-.19-.09-.784.288-14.366 8.865-15.864 9.812a.722.722 0 0 1-.334.02Z" fill="#fff"/></g><defs><linearGradient id="b" x1="27" y1="54" x2="27" y2="0" gradientUnits="userSpaceOnUse"><stop stop-color="#1D93D2"/><stop offset="1" stop-color="#38B0E3"/></linearGradient><clipPath id="a"><path fill="#fff" d="M0 0h54v54H0z"/></clipPath></defs></svg>