<svg width="32" height="30" viewBox="0 0 32 30" fill="none" xmlns="http://www.w3.org/2000/svg">
<g clip-path="url(#clip0_21_1394)">
<path d="M6.887 2.01131L15.7521 1.08276L24.6172 2.01131L31.4809 11.1394L15.7521 29.2862L0.0249023 11.1394L6.88755 2.01131H6.887Z" fill="#FDB300"/>
<path d="M6.39518 11.249L15.7527 29.2862L0.0239258 11.249H6.39518ZM25.1119 11.249L15.7538 29.2862L31.4821 11.249H25.1119Z" fill="#EA6C00"/>
<path d="M6.25201 11.249H24.9297L15.5911 29.2862L6.25146 11.249H6.25201Z" fill="#FDAD00"/>
<path d="M15.4273 1.08276L6.73418 2.02107L6.25146 11.249L15.4273 1.08276ZM15.75 1.08276L24.4421 2.02107L24.9248 11.249L15.75 1.08276Z" fill="#FDD231"/>
<path d="M31.4821 11.2496L24.6005 2.06665L25.094 11.249L31.4821 11.2496ZM0.0244682 11.2496L6.90555 2.06665L6.41199 11.249H0.0239258L0.0244682 11.2496Z" fill="#FDAD00"/>
<path d="M15.5905 1.08276L6.25195 11.249H24.9296L15.5905 1.08276Z" fill="#FEEEB7"/>
</g>
<defs>
<clipPath id="clip0_21_1394">
<rect width="32" height="28.7458" fill="white" transform="translate(0 0.627197)"/>
</clipPath>
</defs>
</svg>
