<svg width="32" height="32" viewBox="0 0 32 32" fill="none" xmlns="http://www.w3.org/2000/svg">
<path d="M7.84615 27.52L4.96154 24.64L25.1538 4.48L28.0385 7.392L7.84615 27.52ZM23.2308 28C22.1731 28 21.2062 27.744 20.3301 27.232C19.4647 26.7093 18.7703 26.016 18.2468 25.152C17.7233 24.2773 17.4615 23.3067 17.4615 22.24C17.4615 21.1947 17.7286 20.2347 18.2628 19.36C18.797 18.4853 19.5021 17.7867 20.3782 17.264C21.2543 16.7413 22.2051 16.48 23.2308 16.48C24.2885 16.48 25.2553 16.7413 26.1314 17.264C27.0075 17.776 27.7019 18.4693 28.2147 19.344C28.7382 20.208 29 21.1733 29 22.24C29 23.3067 28.7382 24.2773 28.2147 25.152C27.7019 26.016 27.0075 26.7093 26.1314 27.232C25.2553 27.744 24.2885 28 23.2308 28ZM23.2308 24.32C23.6047 24.32 23.9466 24.224 24.2564 24.032C24.5769 23.84 24.8333 23.5893 25.0256 23.28C25.218 22.96 25.3141 22.6133 25.3141 22.24C25.3141 21.8667 25.218 21.5253 25.0256 21.216C24.8333 20.896 24.5769 20.64 24.2564 20.448C23.9466 20.256 23.6047 20.16 23.2308 20.16C22.8568 20.16 22.5096 20.256 22.1891 20.448C21.8793 20.64 21.6282 20.896 21.4359 21.216C21.2436 21.5253 21.1474 21.8667 21.1474 22.24C21.1474 22.6133 21.2436 22.96 21.4359 23.28C21.6282 23.5893 21.8793 23.84 22.1891 24.032C22.5096 24.224 22.8568 24.32 23.2308 24.32ZM9.76923 15.52C8.71154 15.52 7.74466 15.264 6.86859 14.752C5.99252 14.2293 5.29274 13.536 4.76923 12.672C4.25641 11.7973 4 10.8267 4 9.76C4 8.71467 4.26709 7.75467 4.80128 6.88C5.33547 6.00533 6.0406 5.30667 6.91667 4.784C7.79274 4.26133 8.74359 4 9.76923 4C10.8269 4 11.7885 4.26133 12.6538 4.784C13.5299 5.296 14.2297 5.98933 14.7532 6.864C15.2767 7.728 15.5385 8.69333 15.5385 9.76C15.5385 10.8267 15.2767 11.7973 14.7532 12.672C14.2297 13.536 13.5299 14.2293 12.6538 14.752C11.7885 15.264 10.8269 15.52 9.76923 15.52ZM9.76923 11.84C10.1432 11.84 10.485 11.744 10.7949 11.552C11.1154 11.36 11.3718 11.1093 11.5641 10.8C11.7564 10.48 11.8526 10.1333 11.8526 9.76C11.8526 9.38667 11.7564 9.04533 11.5641 8.736C11.3718 8.416 11.1154 8.16 10.7949 7.968C10.485 7.776 10.1432 7.68 9.76923 7.68C9.3953 7.68 9.04808 7.776 8.72756 7.968C8.41774 8.16 8.16667 8.416 7.97436 8.736C7.78205 9.04533 7.6859 9.38667 7.6859 9.76C7.6859 10.1333 7.78205 10.48 7.97436 10.8C8.16667 11.1093 8.41774 11.36 8.72756 11.552C9.04808 11.744 9.3953 11.84 9.76923 11.84Z" fill="url(#paint0_linear_21_1608)"/>
<defs>
<linearGradient id="paint0_linear_21_1608" x1="16.5" y1="4" x2="17" y2="47.5" gradientUnits="userSpaceOnUse">
<stop stop-color="#E9B98A"/>
<stop offset="1" stop-color="#D6850B"/>
</linearGradient>
</defs>
</svg>
