<svg width="1920" height="2290" viewBox="0 0 1920 2290" fill="none" xmlns="http://www.w3.org/2000/svg">
<g clip-path="url(#clip0_2070_232)">
<g style="mix-blend-mode:screen" opacity="0.15" filter="url(#filter0_f_2070_232)">
<rect x="-1352" y="-198" width="1307" height="1564" rx="653.5" fill="#FF276C"/>
</g>
<g style="mix-blend-mode:screen" opacity="0.05" filter="url(#filter1_f_2070_232)">
<rect x="1736" y="726" width="1307" height="1564" rx="653.5" fill="#FF276C"/>
</g>
<mask id="mask0_2070_232" style="mask-type:alpha" maskUnits="userSpaceOnUse" x="1411" y="503" width="769" height="975">
<rect x="2179.69" y="503" width="975" height="768.686" transform="rotate(90 2179.69 503)" fill="#D9D9D9"/>
</mask>
<g mask="url(#mask0_2070_232)">
<g style="mix-blend-mode:overlay">
<mask id="path-4-inside-1_2070_232" fill="white">
<path d="M1104.86 -609.993L1460.11 -609.993L1460.11 910.471L1104.86 910.471L1104.86 -609.993Z"/>
</mask>
<path d="M1453 -609.993L1453 910.471L1467.21 910.471L1467.21 -609.993H1453Z" fill="url(#paint0_linear_2070_232)" mask="url(#path-4-inside-1_2070_232)"/>
<mask id="path-6-inside-2_2070_232" fill="white">
<path d="M1453 651.132L1453 295.884L1808.25 295.884L1808.25 651.132L1453 651.132Z"/>
</mask>
<path d="M1453 302.989L1808.25 302.989L1808.25 288.779L1453 288.779L1453 302.989Z" fill="url(#paint1_linear_2070_232)" mask="url(#path-6-inside-2_2070_232)"/>
<mask id="path-8-inside-3_2070_232" fill="white">
<path d="M1104.86 1258.61L1104.86 903.361L1460.11 903.361L1460.11 1258.61L1104.86 1258.61Z"/>
</mask>
<path d="M1104.86 910.466L1460.11 910.466L1460.11 896.256L1104.86 896.256L1104.86 910.466Z" fill="url(#paint2_linear_2070_232)" mask="url(#path-8-inside-3_2070_232)"/>
<mask id="path-10-inside-4_2070_232" fill="white">
<path d="M1460.1 867.845L1460.1 512.596L1104.85 512.596L1104.85 867.845L1460.1 867.845Z"/>
</mask>
<path d="M1460.1 519.701L1104.85 519.701L1104.85 505.491L1460.1 505.491L1460.1 519.701Z" fill="url(#paint3_linear_2070_232)" mask="url(#path-10-inside-4_2070_232)"/>
<mask id="path-12-inside-5_2070_232" fill="white">
<path d="M2156.39 370.519L2156.39 725.767L1801.14 725.767L1801.14 370.519L2156.39 370.519Z"/>
</mask>
<path d="M2156.39 718.662L1801.14 718.662L1801.14 732.872L2156.39 732.872L2156.39 718.662Z" fill="url(#paint4_linear_2070_232)" mask="url(#path-12-inside-5_2070_232)"/>
<mask id="path-14-inside-6_2070_232" fill="white">
<path d="M2156.39 1081.02L1801.14 1081.02L1801.15 725.774L2156.39 725.774L2156.39 1081.02Z"/>
</mask>
<path d="M1808.25 1081.02L1808.25 725.774L1794.04 725.774L1794.04 1081.02L1808.25 1081.02Z" fill="url(#paint5_linear_2070_232)" mask="url(#path-14-inside-6_2070_232)"/>
<mask id="path-16-inside-7_2070_232" fill="white">
<path d="M1453 175.124L1808.25 175.124L1808.25 1695.59L1453 1695.59L1453 175.124Z"/>
</mask>
<path d="M1801.15 175.124L1801.15 1695.59L1815.36 1695.59L1815.36 175.124L1801.15 175.124Z" fill="url(#paint6_linear_2070_232)" mask="url(#path-16-inside-7_2070_232)"/>
<mask id="path-18-inside-8_2070_232" fill="white">
<path d="M1801.14 1436.25L1801.14 1081L2156.39 1081L2156.39 1436.25L1801.14 1436.25Z"/>
</mask>
<path d="M1801.14 1088.11L2156.39 1088.11L2156.39 1073.9L1801.14 1073.9L1801.14 1088.11Z" fill="url(#paint7_linear_2070_232)" mask="url(#path-18-inside-8_2070_232)"/>
<mask id="path-20-inside-9_2070_232" fill="white">
<path d="M1453 1258.64L1453 903.387L1808.25 903.387L1808.25 1258.64L1453 1258.64Z"/>
</mask>
<path d="M1453 910.492L1808.25 910.492L1808.25 896.282L1453 896.282L1453 910.492Z" fill="url(#paint8_linear_2070_232)" mask="url(#path-20-inside-9_2070_232)"/>
<mask id="path-22-inside-10_2070_232" fill="white">
<path d="M1808.89 1652.28L1808.89 1297.14L868.42 1297.14L868.42 1652.28L1808.89 1652.28Z"/>
</mask>
<path d="M1808.89 1304.25L868.42 1304.25L868.42 1290.04L1808.89 1290.04L1808.89 1304.25Z" fill="url(#paint9_linear_2070_232)" mask="url(#path-22-inside-10_2070_232)"/>
</g>
</g>
<mask id="mask1_2070_232" style="mask-type:alpha" maskUnits="userSpaceOnUse" x="-260" y="239" width="769" height="975">
<rect width="975" height="768.686" transform="matrix(4.37114e-08 1 1 -4.37114e-08 -260 239)" fill="#D9D9D9"/>
</mask>
<g mask="url(#mask1_2070_232)">
<g style="mix-blend-mode:overlay">
<mask id="path-25-inside-11_2070_232" fill="white">
<path d="M814.829 -873.993L459.581 -873.993L459.581 646.471L814.829 646.471L814.829 -873.993Z"/>
</mask>
<path d="M466.686 -873.993L466.686 646.471L452.476 646.471L452.476 -873.993H466.686Z" fill="url(#paint10_linear_2070_232)" mask="url(#path-25-inside-11_2070_232)"/>
<mask id="path-27-inside-12_2070_232" fill="white">
<path d="M466.688 387.132L466.688 31.8838L111.439 31.8837L111.439 387.132L466.688 387.132Z"/>
</mask>
<path d="M466.688 38.9887L111.439 38.9887L111.439 24.7788L466.688 24.7788L466.688 38.9887Z" fill="url(#paint11_linear_2070_232)" mask="url(#path-27-inside-12_2070_232)"/>
<mask id="path-29-inside-13_2070_232" fill="white">
<path d="M814.83 994.609L814.83 639.361L459.581 639.361L459.581 994.609L814.83 994.609Z"/>
</mask>
<path d="M814.83 646.466L459.581 646.466L459.581 632.256L814.83 632.256L814.83 646.466Z" fill="url(#paint12_linear_2070_232)" mask="url(#path-29-inside-13_2070_232)"/>
<mask id="path-31-inside-14_2070_232" fill="white">
<path d="M459.583 603.845L459.583 248.596L814.832 248.596L814.832 603.845L459.583 603.845Z"/>
</mask>
<path d="M459.583 255.701L814.832 255.701L814.832 241.491L459.583 241.491L459.583 255.701Z" fill="url(#paint13_linear_2070_232)" mask="url(#path-31-inside-14_2070_232)"/>
<mask id="path-33-inside-15_2070_232" fill="white">
<path d="M-236.707 106.519L-236.707 461.767L118.542 461.767L118.542 106.519L-236.707 106.519Z"/>
</mask>
<path d="M-236.707 454.662L118.542 454.662L118.542 468.872L-236.707 468.872L-236.707 454.662Z" fill="url(#paint14_linear_2070_232)" mask="url(#path-33-inside-15_2070_232)"/>
<mask id="path-35-inside-16_2070_232" fill="white">
<path d="M-236.708 817.023L118.541 817.023L118.541 461.774L-236.708 461.774L-236.708 817.023Z"/>
</mask>
<path d="M111.436 817.023L111.436 461.774L125.646 461.774L125.646 817.023L111.436 817.023Z" fill="url(#paint15_linear_2070_232)" mask="url(#path-35-inside-16_2070_232)"/>
<mask id="path-37-inside-17_2070_232" fill="white">
<path d="M466.684 -88.8765L111.435 -88.8765L111.435 1431.59L466.684 1431.59L466.684 -88.8765Z"/>
</mask>
<path d="M118.54 -88.8765L118.54 1431.59L104.33 1431.59L104.33 -88.8765L118.54 -88.8765Z" fill="url(#paint16_linear_2070_232)" mask="url(#path-37-inside-17_2070_232)"/>
<mask id="path-39-inside-18_2070_232" fill="white">
<path d="M118.542 1172.25L118.542 817L-236.707 817L-236.707 1172.25L118.542 1172.25Z"/>
</mask>
<path d="M118.542 824.105L-236.707 824.105L-236.707 809.895L118.542 809.895L118.542 824.105Z" fill="url(#paint17_linear_2070_232)" mask="url(#path-39-inside-18_2070_232)"/>
<mask id="path-41-inside-19_2070_232" fill="white">
<path d="M466.687 994.636L466.687 639.387L111.438 639.387L111.438 994.636L466.687 994.636Z"/>
</mask>
<path d="M466.687 646.492L111.438 646.492L111.438 632.282L466.687 632.282L466.687 646.492Z" fill="url(#paint18_linear_2070_232)" mask="url(#path-41-inside-19_2070_232)"/>
<mask id="path-43-inside-20_2070_232" fill="white">
<path d="M110.794 1388.28L110.794 1033.14L1051.27 1033.14L1051.27 1388.28L110.794 1388.28Z"/>
</mask>
<path d="M110.794 1040.25L1051.27 1040.25L1051.27 1026.04L110.794 1026.04L110.794 1040.25Z" fill="url(#paint19_linear_2070_232)" mask="url(#path-43-inside-20_2070_232)"/>
</g>
</g>
</g>
<defs>
<filter id="filter0_f_2070_232" x="-1907" y="-753" width="2417" height="2674" filterUnits="userSpaceOnUse" color-interpolation-filters="sRGB">
<feFlood flood-opacity="0" result="BackgroundImageFix"/>
<feBlend mode="normal" in="SourceGraphic" in2="BackgroundImageFix" result="shape"/>
<feGaussianBlur stdDeviation="277.5" result="effect1_foregroundBlur_2070_232"/>
</filter>
<filter id="filter1_f_2070_232" x="1181" y="171" width="2417" height="2674" filterUnits="userSpaceOnUse" color-interpolation-filters="sRGB">
<feFlood flood-opacity="0" result="BackgroundImageFix"/>
<feBlend mode="normal" in="SourceGraphic" in2="BackgroundImageFix" result="shape"/>
<feGaussianBlur stdDeviation="277.5" result="effect1_foregroundBlur_2070_232"/>
</filter>
<linearGradient id="paint0_linear_2070_232" x1="1460.11" y1="111.161" x2="1460.11" y2="-609.993" gradientUnits="userSpaceOnUse">
<stop stop-color="white"/>
<stop offset="1" stop-color="white" stop-opacity="0"/>
</linearGradient>
<linearGradient id="paint1_linear_2070_232" x1="1808.25" y1="295.884" x2="1453" y2="295.884" gradientUnits="userSpaceOnUse">
<stop stop-color="white"/>
<stop offset="1" stop-color="white" stop-opacity="0"/>
</linearGradient>
<linearGradient id="paint2_linear_2070_232" x1="1460.11" y1="903.361" x2="1104.86" y2="903.361" gradientUnits="userSpaceOnUse">
<stop stop-color="white"/>
<stop offset="1" stop-color="white" stop-opacity="0"/>
</linearGradient>
<linearGradient id="paint3_linear_2070_232" x1="1104.85" y1="512.596" x2="1460.1" y2="512.596" gradientUnits="userSpaceOnUse">
<stop stop-color="white"/>
<stop offset="1" stop-color="white" stop-opacity="0"/>
</linearGradient>
<linearGradient id="paint4_linear_2070_232" x1="1801.14" y1="725.767" x2="2156.39" y2="725.767" gradientUnits="userSpaceOnUse">
<stop stop-color="white"/>
<stop offset="1" stop-color="white" stop-opacity="0"/>
</linearGradient>
<linearGradient id="paint5_linear_2070_232" x1="1801.15" y1="725.774" x2="1801.14" y2="1081.02" gradientUnits="userSpaceOnUse">
<stop stop-color="white"/>
<stop offset="1" stop-color="white" stop-opacity="0"/>
</linearGradient>
<linearGradient id="paint6_linear_2070_232" x1="1808.25" y1="896.278" x2="1808.25" y2="175.124" gradientUnits="userSpaceOnUse">
<stop stop-color="white"/>
<stop offset="1" stop-color="white" stop-opacity="0"/>
</linearGradient>
<linearGradient id="paint7_linear_2070_232" x1="2156.39" y1="1081" x2="1801.14" y2="1081" gradientUnits="userSpaceOnUse">
<stop stop-color="white"/>
<stop offset="1" stop-color="white" stop-opacity="0"/>
</linearGradient>
<linearGradient id="paint8_linear_2070_232" x1="1808.25" y1="903.387" x2="1453" y2="903.387" gradientUnits="userSpaceOnUse">
<stop stop-color="white"/>
<stop offset="1" stop-color="white" stop-opacity="0"/>
</linearGradient>
<linearGradient id="paint9_linear_2070_232" x1="868.42" y1="1297.14" x2="1808.89" y2="1297.14" gradientUnits="userSpaceOnUse">
<stop stop-color="white"/>
<stop offset="1" stop-color="white" stop-opacity="0"/>
</linearGradient>
<linearGradient id="paint10_linear_2070_232" x1="459.581" y1="-152.839" x2="459.581" y2="-873.993" gradientUnits="userSpaceOnUse">
<stop stop-color="white"/>
<stop offset="1" stop-color="white" stop-opacity="0"/>
</linearGradient>
<linearGradient id="paint11_linear_2070_232" x1="111.439" y1="31.8837" x2="466.688" y2="31.8838" gradientUnits="userSpaceOnUse">
<stop stop-color="white"/>
<stop offset="1" stop-color="white" stop-opacity="0"/>
</linearGradient>
<linearGradient id="paint12_linear_2070_232" x1="459.581" y1="639.361" x2="814.83" y2="639.361" gradientUnits="userSpaceOnUse">
<stop stop-color="white"/>
<stop offset="1" stop-color="white" stop-opacity="0"/>
</linearGradient>
<linearGradient id="paint13_linear_2070_232" x1="814.832" y1="248.596" x2="459.583" y2="248.596" gradientUnits="userSpaceOnUse">
<stop stop-color="white"/>
<stop offset="1" stop-color="white" stop-opacity="0"/>
</linearGradient>
<linearGradient id="paint14_linear_2070_232" x1="118.542" y1="461.767" x2="-236.707" y2="461.767" gradientUnits="userSpaceOnUse">
<stop stop-color="white"/>
<stop offset="1" stop-color="white" stop-opacity="0"/>
</linearGradient>
<linearGradient id="paint15_linear_2070_232" x1="118.541" y1="461.774" x2="118.541" y2="817.023" gradientUnits="userSpaceOnUse">
<stop stop-color="white"/>
<stop offset="1" stop-color="white" stop-opacity="0"/>
</linearGradient>
<linearGradient id="paint16_linear_2070_232" x1="111.435" y1="632.278" x2="111.435" y2="-88.8765" gradientUnits="userSpaceOnUse">
<stop stop-color="white"/>
<stop offset="1" stop-color="white" stop-opacity="0"/>
</linearGradient>
<linearGradient id="paint17_linear_2070_232" x1="-236.707" y1="817" x2="118.542" y2="817" gradientUnits="userSpaceOnUse">
<stop stop-color="white"/>
<stop offset="1" stop-color="white" stop-opacity="0"/>
</linearGradient>
<linearGradient id="paint18_linear_2070_232" x1="111.438" y1="639.387" x2="466.687" y2="639.387" gradientUnits="userSpaceOnUse">
<stop stop-color="white"/>
<stop offset="1" stop-color="white" stop-opacity="0"/>
</linearGradient>
<linearGradient id="paint19_linear_2070_232" x1="1051.27" y1="1033.14" x2="110.794" y2="1033.14" gradientUnits="userSpaceOnUse">
<stop stop-color="white"/>
<stop offset="1" stop-color="white" stop-opacity="0"/>
</linearGradient>
<clipPath id="clip0_2070_232">
<rect width="1920" height="2290" fill="white"/>
</clipPath>
</defs>
</svg>
