<svg xmlns="http://www.w3.org/2000/svg" width="25" height="25" viewBox="0 0 25 25" fill="none">
  <g clip-path="url(#clip0_21_1210)">
    <path d="M12.194 9.04305L12.777 8.53705L13.761 7.68105V1.93705C13.761 1.18505 13.06 0.57605 12.194 0.57605C11.329 0.57605 10.627 1.18505 10.627 1.93705V7.68105L11.612 8.53705L12.194 9.04305ZM12.194 16.0991L11.612 16.605L10.627 17.4611V23.2041C10.627 23.9561 11.329 24.566 12.194 24.566C13.06 24.566 13.761 23.9561 13.761 23.2041V17.4611L12.777 16.605L12.194 16.0991ZM16.304 11.91L17.16 10.924H22.901C23.653 10.924 24.262 11.626 24.262 12.492C24.262 13.358 23.653 14.0601 22.901 14.0601H17.16L16.304 13.075L15.799 12.492L16.304 11.91ZM8.74596 12.492L8.24096 11.91L7.38496 10.924H1.64396C0.892959 10.924 0.282959 11.626 0.282959 12.492C0.282959 13.358 0.892959 14.0601 1.64396 14.0601H7.38496L8.24096 13.075L8.74596 12.492ZM9.62996 13.276L11.567 15.214L11.058 15.724L5.75596 21.029C5.48796 21.296 5.13796 21.43 4.78696 21.43C4.61196 21.43 4.43696 21.396 4.27196 21.3291C4.10696 21.2631 3.95296 21.162 3.81896 21.029C3.28396 20.494 3.28396 19.626 3.81896 19.091L9.12096 13.786L9.62996 13.276ZM12.978 9.92705L14.915 11.865L15.424 11.356L20.727 6.05105C21.261 5.51605 21.261 4.64805 20.727 4.11305C20.593 3.97905 20.438 3.87905 20.273 3.81205C20.109 3.74505 19.933 3.71205 19.758 3.71205C19.407 3.71205 19.057 3.84505 18.789 4.11305L13.487 9.41805L12.978 9.92705ZM11.959 10.353L13.863 12.257L15.209 13.604L20.42 18.817C20.945 19.343 20.945 20.196 20.42 20.722C20.157 20.9851 19.812 21.116 19.468 21.116C19.123 21.116 18.779 20.9851 18.516 20.722L13.305 15.509L11.959 14.162L10.055 12.257L8.70896 10.91L3.49796 5.69705C2.97296 5.17105 2.97296 4.31805 3.49796 3.79305C3.56396 3.72705 3.63496 3.66905 3.70996 3.62005C3.85896 3.52105 4.02296 3.45605 4.19296 3.42305C4.27796 3.40605 4.36396 3.39805 4.44996 3.39805C4.79496 3.39805 5.13896 3.52905 5.40196 3.79305L10.613 9.00605L11.959 10.353Z" fill="white"/>
  </g>
  <defs>
    <clipPath id="clip0_21_1210">
      <rect width="25" height="25" fill="white"/>
    </clipPath>
  </defs>
</svg>