<svg xmlns="http://www.w3.org/2000/svg" width="54" height="54" viewBox="0 0 54 54" fill="none">
  <path d="M27.0088 0C15.7366 0 12.4399 0.0116318 11.799 0.0648055C9.48579 0.257145 8.04633 0.621468 6.47814 1.40246C5.26959 2.00274 4.31647 2.69857 3.3758 3.67397C1.66266 5.4528 0.62439 7.64123 0.248538 10.2426C0.065803 11.5055 0.0126438 11.763 0.00184581 18.2137C-0.00230726 20.3639 0.00184581 23.1937 0.00184581 26.9894C0.00184581 38.2556 0.014305 41.5499 0.0682948 42.1896C0.255183 44.4412 0.608193 45.8578 1.35574 47.4073C2.7844 50.3734 5.51296 52.6 8.72744 53.4309C9.84046 53.7175 11.0698 53.8754 12.6479 53.9501C13.3166 53.9792 20.1318 54 26.9511 54C33.7704 54 40.5898 53.9917 41.2418 53.9585C43.0691 53.8725 44.1302 53.73 45.3035 53.4267C48.5387 52.5917 51.2174 50.3983 52.6752 47.3907C53.4082 45.8785 53.7799 44.408 53.9481 42.2739C53.9846 41.8087 54 34.3905 54 26.9823C54 19.5729 53.9834 12.1685 53.9468 11.7032C53.7766 9.53471 53.4049 8.07659 52.6482 6.53538C52.0273 5.27375 51.3379 4.33158 50.337 3.36822C48.5508 1.66168 46.3662 0.62313 43.7631 0.24759C42.5018 0.0652209 42.2506 0.0112163 35.7967 0H27.0088Z" fill="url(#paint0_radial_2043_714)"/>
  <path d="M27.0088 0C15.7366 0 12.4399 0.0116318 11.799 0.0648055C9.48579 0.257145 8.04633 0.621468 6.47814 1.40246C5.26959 2.00274 4.31647 2.69857 3.3758 3.67397C1.66266 5.4528 0.62439 7.64123 0.248538 10.2426C0.065803 11.5055 0.0126438 11.763 0.00184581 18.2137C-0.00230726 20.3639 0.00184581 23.1937 0.00184581 26.9894C0.00184581 38.2556 0.014305 41.5499 0.0682948 42.1896C0.255183 44.4412 0.608193 45.8578 1.35574 47.4073C2.7844 50.3734 5.51296 52.6 8.72744 53.4309C9.84046 53.7175 11.0698 53.8754 12.6479 53.9501C13.3166 53.9792 20.1318 54 26.9511 54C33.7704 54 40.5898 53.9917 41.2418 53.9585C43.0691 53.8725 44.1302 53.73 45.3035 53.4267C48.5387 52.5917 51.2174 50.3983 52.6752 47.3907C53.4082 45.8785 53.7799 44.408 53.9481 42.2739C53.9846 41.8087 54 34.3905 54 26.9823C54 19.5729 53.9834 12.1685 53.9468 11.7032C53.7766 9.53471 53.4049 8.07659 52.6482 6.53538C52.0273 5.27375 51.3379 4.33158 50.337 3.36822C48.5508 1.66168 46.3662 0.62313 43.7631 0.24759C42.5018 0.0652209 42.2506 0.0112163 35.7967 0H27.0088Z" fill="url(#paint1_radial_2043_714)"/>
  <path d="M27.0029 8.82019C22.0655 8.82019 21.4459 8.84178 19.5067 8.93003C17.5713 9.01865 16.2503 9.32506 15.0943 9.77463C13.8986 10.239 12.8843 10.8601 11.8738 11.871C10.8626 12.8815 10.2415 13.8958 9.77559 15.0911C9.32489 16.2474 9.0181 17.5688 8.93099 19.5035C8.84426 21.4427 8.82153 22.0627 8.82153 27C8.82153 31.9373 8.8435 32.5551 8.93137 34.4943C9.02038 36.4296 9.32678 37.7507 9.77597 38.9066C10.2407 40.1023 10.8618 41.1166 11.8727 42.1271C12.8828 43.1384 13.8971 43.761 15.0921 44.2254C16.2487 44.675 17.5702 44.9814 19.5052 45.07C21.4444 45.1582 22.0636 45.1798 27.0006 45.1798C31.9383 45.1798 32.556 45.1582 34.4952 45.07C36.4306 44.9814 37.7532 44.675 38.9099 44.2254C40.1052 43.761 41.118 43.1384 42.1281 42.1271C43.1393 41.1166 43.7605 40.1023 44.2263 38.907C44.6733 37.7507 44.98 36.4293 45.0709 34.4946C45.1581 32.5555 45.1808 31.9373 45.1808 27C45.1808 22.0627 45.1581 21.443 45.0709 19.5039C44.98 17.5685 44.6733 16.2474 44.2263 15.0915C43.7605 13.8958 43.1393 12.8815 42.1281 11.871C41.1168 10.8597 40.1056 10.2386 38.9087 9.77463C37.7498 9.32506 36.428 9.01865 34.4926 8.93003C32.5534 8.84178 31.936 8.82019 26.9972 8.82019H27.0029ZM25.372 12.0963C25.856 12.0956 26.3961 12.0963 27.0029 12.0963C31.8569 12.0963 32.4322 12.1138 34.349 12.2009C36.1216 12.2819 37.0836 12.5781 37.7244 12.8269C38.5728 13.1565 39.1777 13.5504 39.8136 14.1866C40.4499 14.8229 40.8438 15.4289 41.174 16.2773C41.4229 16.9174 41.7194 17.8794 41.8001 19.652C41.8872 21.5684 41.9061 22.1441 41.9061 26.9958C41.9061 31.8476 41.8872 32.4233 41.8001 34.3397C41.719 36.1123 41.4229 37.0743 41.174 37.7144C40.8445 38.5627 40.4499 39.1668 39.8136 39.8028C39.1773 40.4391 38.5732 40.8329 37.7244 41.1625C37.0843 41.4124 36.1216 41.7079 34.349 41.7889C32.4326 41.876 31.8569 41.895 27.0029 41.895C22.1485 41.895 21.5732 41.876 19.6567 41.7889C17.8842 41.7071 16.9222 41.4109 16.2809 41.1621C15.4325 40.8326 14.8266 40.4387 14.1903 39.8024C13.554 39.1661 13.1601 38.5616 12.8298 37.7128C12.581 37.0728 12.2844 36.1107 12.2037 34.3382C12.1166 32.4218 12.0992 31.8461 12.0992 26.9913C12.0992 22.1365 12.1166 21.5639 12.2037 19.6474C12.2848 17.8749 12.581 16.9129 12.8298 16.272C13.1593 15.4236 13.554 14.8176 14.1903 14.1813C14.8266 13.545 15.4325 13.1512 16.2809 12.8209C16.9218 12.5709 17.8842 12.2755 19.6567 12.1941C21.3338 12.1183 21.9837 12.0956 25.372 12.0918V12.0963ZM36.7071 15.115C35.5027 15.115 34.5255 16.091 34.5255 17.2958C34.5255 18.5002 35.5027 19.4773 36.7071 19.4773C37.9115 19.4773 38.8887 18.5002 38.8887 17.2958C38.8887 16.0914 37.9115 15.1142 36.7071 15.1142V15.115ZM27.0029 17.6639C21.847 17.6639 17.6668 21.8441 17.6668 27C17.6668 32.1559 21.847 36.3342 27.0029 36.3342C32.1587 36.3342 36.3374 32.1559 36.3374 27C36.3374 21.8441 32.1587 17.6639 27.0029 17.6639ZM27.0029 20.9401C30.3495 20.9401 33.0628 23.653 33.0628 27C33.0628 30.3466 30.3495 33.0599 27.0029 33.0599C23.6559 33.0599 20.9429 30.3466 20.9429 27C20.9429 23.653 23.6559 20.9401 27.0029 20.9401Z" fill="white"/>
  <defs>
    <radialGradient id="paint0_radial_2043_714" cx="0" cy="0" r="1" gradientUnits="userSpaceOnUse" gradientTransform="translate(14.3438 58.1591) rotate(-90) scale(53.518 49.7759)">
      <stop stop-color="#FFDD55"/>
      <stop offset="0.1" stop-color="#FFDD55"/>
      <stop offset="0.5" stop-color="#FF543E"/>
      <stop offset="1" stop-color="#C837AB"/>
    </radialGradient>
    <radialGradient id="paint1_radial_2043_714" cx="0" cy="0" r="1" gradientUnits="userSpaceOnUse" gradientTransform="translate(-9.04529 3.89007) rotate(78.6806) scale(23.9228 98.6106)">
      <stop stop-color="#3771C8"/>
      <stop offset="0.128" stop-color="#3771C8"/>
      <stop offset="1" stop-color="#6600FF" stop-opacity="0"/>
    </radialGradient>
  </defs>
</svg>