<svg xmlns="http://www.w3.org/2000/svg" width="161" height="20" viewBox="0 0 161 20" fill="none">
  <path d="M0 13.795L3.62881 13.241C3.81348 14.1274 4.21053 14.8661 4.81994 15.4571C5.44783 16.048 6.28809 16.4912 7.34072 16.7867C8.41182 17.0822 9.68606 17.2299 11.1634 17.2299C12.3638 17.2299 13.398 17.1653 14.2659 17.036C15.1524 16.9067 15.8726 16.7221 16.4266 16.482C16.9991 16.2235 17.4146 15.9187 17.6731 15.5679C17.9501 15.1985 18.0886 14.7922 18.0886 14.349C18.0886 13.7396 17.9224 13.2502 17.59 12.8809C17.2576 12.5115 16.7221 12.2253 15.9834 12.0222C15.2632 11.819 14.3029 11.6528 13.1025 11.5235L8.03324 11.1634C6.85134 11.0342 5.79871 10.8403 4.87535 10.5817C3.95199 10.3232 3.17636 9.98153 2.54848 9.55679C1.93906 9.13204 1.47738 8.61496 1.16343 8.00554C0.849492 7.39612 0.692521 6.6759 0.692521 5.84488C0.692521 4.93998 0.904894 4.12742 1.32964 3.4072C1.75439 2.68698 2.39151 2.07756 3.241 1.57895C4.09049 1.08033 5.13389 0.69252 6.37119 0.415512C7.6085 0.138504 9.0397 0 10.6648 0C12.807 0 14.6076 0.221607 16.0665 0.66482C17.5254 1.10803 18.6796 1.76362 19.5291 2.63158C20.3786 3.48107 20.9418 4.55217 21.2188 5.84488L17.6177 6.37119C17.3223 5.17082 16.6205 4.27516 15.5125 3.68421C14.4044 3.07479 12.7701 2.77008 10.6094 2.77008C9.51985 2.77008 8.56879 2.83472 7.75623 2.96399C6.96214 3.09326 6.30656 3.27793 5.78947 3.518C5.27239 3.75808 4.88458 4.05355 4.62604 4.40443C4.38596 4.73684 4.26593 5.11542 4.26593 5.54017C4.26593 6.13112 4.44137 6.60203 4.79224 6.95291C5.16159 7.28532 5.69714 7.55309 6.39889 7.75623C7.11911 7.9409 8.04247 8.09788 9.16897 8.22715L14.349 8.61496C15.9741 8.79963 17.3315 9.09511 18.4211 9.50138C19.5106 9.90766 20.3232 10.4801 20.8587 11.2188C21.4127 11.9391 21.6898 12.8717 21.6898 14.0166C21.6898 14.9769 21.4589 15.8264 20.9972 16.5651C20.554 17.3038 19.8892 17.9317 19.0028 18.4488C18.1163 18.9658 17.0083 19.3536 15.6787 19.6122C14.3675 19.8707 12.844 20 11.108 20C9.48292 20 8.02401 19.8707 6.7313 19.6122C5.45706 19.3536 4.35826 18.9751 3.4349 18.4765C2.51154 17.9594 1.76362 17.313 1.19114 16.5374C0.618652 15.7618 0.221607 14.8476 0 13.795Z" fill="#FF276C"/>
  <path d="M23.7589 19.6953V0.304709H27.083V19.6953H23.7589ZM46.6121 19.6953V0.304709H49.9362V19.6953H46.6121ZM38.4126 16.3712H35.3378L25.4209 2.52078L24.2298 0.304709H27.5539L37.3046 13.8504H36.5013L46.1965 0.304709H49.3544L48.1633 2.54848L38.4126 16.3712Z" fill="#FF276C"/>
  <path d="M52.3903 19.6953V0.304709H55.7144V19.6953H52.3903ZM75.2435 19.6953V0.304709H78.5676V19.6953H75.2435ZM67.044 16.3712H63.9692L54.0523 2.52078L52.8612 0.304709H56.1853L65.936 13.8504H65.1327L74.8279 0.304709H77.9858L76.7947 2.54848L67.044 16.3712Z" fill="#FF276C"/>
  <path d="M80.1907 13.795L83.8195 13.241C84.0041 14.1274 84.4012 14.8661 85.0106 15.4571C85.6385 16.048 86.4787 16.4912 87.5314 16.7867C88.6025 17.0822 89.8767 17.2299 91.3541 17.2299C92.5545 17.2299 93.5886 17.1653 94.4566 17.036C95.343 16.9067 96.0632 16.7221 96.6172 16.482C97.1897 16.2235 97.6052 15.9187 97.8638 15.5679C98.1408 15.1985 98.2793 14.7922 98.2793 14.349C98.2793 13.7396 98.1131 13.2502 97.7807 12.8809C97.4483 12.5115 96.9127 12.2253 96.174 12.0222C95.4538 11.819 94.4935 11.6528 93.2931 11.5235L88.2239 11.1634C87.042 11.0342 85.9894 10.8403 85.066 10.5817C84.1426 10.3232 83.367 9.98153 82.7391 9.55679C82.1297 9.13204 81.668 8.61496 81.3541 8.00554C81.0402 7.39612 80.8832 6.6759 80.8832 5.84488C80.8832 4.93998 81.0955 4.12742 81.5203 3.4072C81.945 2.68698 82.5822 2.07756 83.4317 1.57895C84.2812 1.08033 85.3245 0.69252 86.5618 0.415512C87.7991 0.138504 89.2304 0 90.8555 0C92.9977 0 94.7982 0.221607 96.2571 0.66482C97.716 1.10803 98.8702 1.76362 99.7197 2.63158C100.569 3.48107 101.132 4.55217 101.409 5.84488L97.8084 6.37119C97.5129 5.17082 96.8111 4.27516 95.7031 3.68421C94.5951 3.07479 92.9607 2.77008 90.8001 2.77008C89.7105 2.77008 88.7594 2.83472 87.9469 2.96399C87.1528 3.09326 86.4972 3.27793 85.9801 3.518C85.463 3.75808 85.0752 4.05355 84.8167 4.40443C84.5766 4.73684 84.4566 5.11542 84.4566 5.54017C84.4566 6.13112 84.632 6.60203 84.9829 6.95291C85.3522 7.28532 85.8878 7.55309 86.5895 7.75623C87.3098 7.9409 88.2331 8.09788 89.3596 8.22715L94.5397 8.61496C96.1648 8.79963 97.5221 9.09511 98.6117 9.50138C99.7013 9.90766 100.514 10.4801 101.049 11.2188C101.603 11.9391 101.88 12.8717 101.88 14.0166C101.88 14.9769 101.65 15.8264 101.188 16.5651C100.745 17.3038 100.08 17.9317 99.1934 18.4488C98.307 18.9658 97.199 19.3536 95.8693 19.6122C94.5582 19.8707 93.0346 20 91.2987 20C89.6736 20 88.2147 19.8707 86.922 19.6122C85.6477 19.3536 84.5489 18.9751 83.6256 18.4765C82.7022 17.9594 81.9543 17.313 81.3818 16.5374C80.8093 15.7618 80.4123 14.8476 80.1907 13.795Z" fill="#FF276C"/>
  <path d="M111.354 19.6953V0.969528H114.927V19.6953H111.354ZM102.434 3.13019V0.304709H123.903V3.13019H102.434Z" fill="#FF276C"/>
  <path d="M139.967 19.6953L130.854 2.54848H132.017L122.931 19.6953H119.192L129.69 0.304709H133.319L143.845 19.6953H139.967ZM124.289 14.9307L124.926 12.1884H138.056L138.693 14.9307H124.289Z" fill="#FF276C"/>
  <path d="M147.476 19.6953V10.8033H151.022V19.6953H147.476ZM160.385 0.304709L150.329 12.8809L147.864 12.41L138.196 0.304709H142.545L149.941 9.75069H148.695L156.229 0.304709H160.385Z" fill="#FF276C"/>
</svg>