<svg width="875" height="654" viewBox="0 0 875 654" fill="none" xmlns="http://www.w3.org/2000/svg">
<mask id="mask0_21_1648" style="mask-type:alpha" maskUnits="userSpaceOnUse" x="-32" y="0" width="593" height="468">
<rect x="-32" width="593" height="467.519" fill="#D9D9D9"/>
</mask>
<g mask="url(#mask0_21_1648)">
<g style="mix-blend-mode:overlay">
<mask id="path-2-inside-1_21_1648" fill="white">
<path d="M-708.928 653.717L-708.928 437.653L215.826 437.653L215.826 653.717L-708.928 653.717Z"/>
</mask>
<path d="M-708.928 441.974L215.826 441.974L215.826 433.332L-708.928 433.332L-708.928 441.974Z" fill="url(#paint0_linear_21_1648)" mask="url(#path-2-inside-1_21_1648)"/>
<mask id="path-4-inside-2_21_1648" fill="white">
<path d="M58.0947 441.975L-157.969 441.975L-157.969 225.911L58.0947 225.911L58.0947 441.975Z"/>
</mask>
<path d="M-153.648 441.975L-153.648 225.911L-162.291 225.911L-162.291 441.975L-153.648 441.975Z" fill="url(#paint1_linear_21_1648)" mask="url(#path-4-inside-2_21_1648)"/>
<mask id="path-6-inside-3_21_1648" fill="white">
<path d="M427.565 653.717L211.501 653.717L211.501 437.653L427.565 437.653L427.565 653.717Z"/>
</mask>
<path d="M215.823 653.717L215.823 437.653L207.18 437.653L207.18 653.717L215.823 653.717Z" fill="url(#paint2_linear_21_1648)" mask="url(#path-6-inside-3_21_1648)"/>
<mask id="path-8-inside-4_21_1648" fill="white">
<path d="M189.901 437.655L-26.1634 437.655L-26.1634 653.719L189.901 653.719L189.901 437.655Z"/>
</mask>
<path d="M-21.8421 437.655L-21.8421 653.719L-30.4847 653.719L-30.4847 437.655L-21.8421 437.655Z" fill="url(#paint3_linear_21_1648)" mask="url(#path-8-inside-4_21_1648)"/>
<mask id="path-10-inside-5_21_1648" fill="white">
<path d="M-112.576 14.1672H103.488V230.231H-112.576V14.1672Z"/>
</mask>
<path d="M99.1666 14.1672V230.231H107.809V14.1672H99.1666Z" fill="url(#paint4_linear_21_1648)" mask="url(#path-10-inside-5_21_1648)"/>
<mask id="path-12-inside-6_21_1648" fill="white">
<path d="M319.556 14.1672L319.556 230.231L103.492 230.231L103.492 14.1672L319.556 14.1672Z"/>
</mask>
<path d="M319.556 225.91L103.492 225.91L103.492 234.553L319.556 234.553L319.556 225.91Z" fill="url(#paint5_linear_21_1648)" mask="url(#path-12-inside-6_21_1648)"/>
<mask id="path-14-inside-7_21_1648" fill="white">
<path d="M-231.417 441.973L-231.417 225.909L693.337 225.909L693.337 441.973L-231.417 441.973Z"/>
</mask>
<path d="M-231.417 230.23L693.337 230.23L693.337 221.588L-231.417 221.588L-231.417 230.23Z" fill="url(#paint6_linear_21_1648)" mask="url(#path-14-inside-7_21_1648)"/>
<mask id="path-16-inside-8_21_1648" fill="white">
<path d="M535.606 230.231L319.542 230.231L319.542 14.1674L535.606 14.1674L535.606 230.231Z"/>
</mask>
<path d="M323.864 230.231L323.864 14.1674L315.221 14.1674L315.221 230.231L323.864 230.231Z" fill="url(#paint7_linear_21_1648)" mask="url(#path-16-inside-8_21_1648)"/>
<mask id="path-18-inside-9_21_1648" fill="white">
<path d="M427.581 441.975L211.517 441.975L211.517 225.911L427.581 225.911L427.581 441.975Z"/>
</mask>
<path d="M215.839 441.975L215.839 225.911L207.196 225.911L207.196 441.975L215.839 441.975Z" fill="url(#paint8_linear_21_1648)" mask="url(#path-18-inside-9_21_1648)"/>
<mask id="path-20-inside-10_21_1648" fill="white">
<path d="M667.412 225.909L451.348 225.909L451.348 441.973L667.412 441.973L667.412 225.909Z"/>
</mask>
<path d="M455.67 225.909L455.67 441.973L447.027 441.973L447.027 225.909L455.67 225.909Z" fill="url(#paint9_linear_21_1648)" mask="url(#path-20-inside-10_21_1648)"/>
</g>
</g>
<defs>
<linearGradient id="paint0_linear_21_1648" x1="-270.318" y1="437.653" x2="-708.928" y2="437.653" gradientUnits="userSpaceOnUse">
<stop stop-color="white"/>
<stop offset="1" stop-color="white" stop-opacity="0"/>
</linearGradient>
<linearGradient id="paint1_linear_21_1648" x1="-157.969" y1="225.911" x2="-157.969" y2="441.975" gradientUnits="userSpaceOnUse">
<stop stop-color="white"/>
<stop offset="1" stop-color="white" stop-opacity="0"/>
</linearGradient>
<linearGradient id="paint2_linear_21_1648" x1="211.501" y1="437.653" x2="211.501" y2="653.717" gradientUnits="userSpaceOnUse">
<stop stop-color="white"/>
<stop offset="1" stop-color="white" stop-opacity="0"/>
</linearGradient>
<linearGradient id="paint3_linear_21_1648" x1="-26.1634" y1="653.719" x2="-26.1634" y2="437.655" gradientUnits="userSpaceOnUse">
<stop stop-color="white"/>
<stop offset="1" stop-color="white" stop-opacity="0"/>
</linearGradient>
<linearGradient id="paint4_linear_21_1648" x1="103.488" y1="230.231" x2="103.488" y2="14.1672" gradientUnits="userSpaceOnUse">
<stop stop-color="white"/>
<stop offset="1" stop-color="white" stop-opacity="0"/>
</linearGradient>
<linearGradient id="paint5_linear_21_1648" x1="103.492" y1="230.231" x2="319.556" y2="230.231" gradientUnits="userSpaceOnUse">
<stop stop-color="white"/>
<stop offset="1" stop-color="white" stop-opacity="0"/>
</linearGradient>
<linearGradient id="paint6_linear_21_1648" x1="207.193" y1="225.909" x2="-231.417" y2="225.909" gradientUnits="userSpaceOnUse">
<stop stop-color="white"/>
<stop offset="1" stop-color="white" stop-opacity="0"/>
</linearGradient>
<linearGradient id="paint7_linear_21_1648" x1="319.542" y1="14.1674" x2="319.542" y2="230.231" gradientUnits="userSpaceOnUse">
<stop stop-color="white"/>
<stop offset="1" stop-color="white" stop-opacity="0"/>
</linearGradient>
<linearGradient id="paint8_linear_21_1648" x1="211.517" y1="225.911" x2="211.517" y2="441.975" gradientUnits="userSpaceOnUse">
<stop stop-color="white"/>
<stop offset="1" stop-color="white" stop-opacity="0"/>
</linearGradient>
<linearGradient id="paint9_linear_21_1648" x1="451.348" y1="441.973" x2="451.348" y2="225.909" gradientUnits="userSpaceOnUse">
<stop stop-color="white"/>
<stop offset="1" stop-color="white" stop-opacity="0"/>
</linearGradient>
</defs>
</svg>
