<svg width="1920" height="732" viewBox="0 0 1920 732" fill="none" xmlns="http://www.w3.org/2000/svg">
<g clip-path="url(#clip0_2043_392)">
<rect width="1920" height="732" fill="#1E1E1E"/>
<g style="mix-blend-mode:screen" opacity="0.19" filter="url(#filter0_f_2043_392)">
<path d="M315 183.791C315 125.207 360.069 76.4817 418.476 71.9222L905.652 33.8914C938.833 31.3011 972.167 31.3011 1005.35 33.8914L1492.52 71.9222C1550.93 76.4817 1596 125.207 1596 183.791V183.791C1596 245.762 1545.76 296 1483.79 296H427.209C365.238 296 315 245.762 315 183.791V183.791Z" fill="#FF276C"/>
</g>
<g style="mix-blend-mode:screen" opacity="0.15" filter="url(#filter1_f_2043_392)">
<path d="M489 186.036C489 153.388 514.333 126.34 546.912 124.206L954.5 97.5L1364.08 124.221C1396.66 126.347 1422 153.394 1422 186.045V186.045C1422 220.262 1394.26 248 1360.04 248H550.963C516.742 248 489 220.258 489 186.036V186.036Z" fill="#FF276C"/>
</g>
<g style="mix-blend-mode:screen" opacity="0.05" filter="url(#filter2_f_2043_392)">
<path d="M489 186.053C489 153.4 514.346 126.353 546.931 124.237L958.5 97.5L1364.1 124.19C1396.67 126.333 1422 153.381 1422 186.028V186.028C1422 220.254 1394.25 248 1360.03 248H550.947C516.735 248 489 220.265 489 186.053V186.053Z" fill="#FF80A8"/>
</g>
<mask id="mask0_2043_392" style="mask-type:alpha" maskUnits="userSpaceOnUse" x="-32" y="-162" width="593" height="468">
<rect x="-32" y="-162" width="593" height="467.519" fill="#D9D9D9"/>
</mask>
<g mask="url(#mask0_2043_392)">
<g style="mix-blend-mode:overlay">
<mask id="path-5-inside-1_2043_392" fill="white">
<path d="M-708.928 491.717L-708.928 275.653L215.826 275.653L215.826 491.717L-708.928 491.717Z"/>
</mask>
<path d="M-708.928 279.974L215.826 279.974L215.826 271.331L-708.928 271.332L-708.928 279.974Z" fill="url(#paint0_linear_2043_392)" mask="url(#path-5-inside-1_2043_392)"/>
<mask id="path-7-inside-2_2043_392" fill="white">
<path d="M58.0947 279.975L-157.969 279.975L-157.969 63.9111L58.0947 63.9111L58.0947 279.975Z"/>
</mask>
<path d="M-153.648 279.975L-153.648 63.9111L-162.291 63.9111L-162.291 279.975L-153.648 279.975Z" fill="url(#paint1_linear_2043_392)" mask="url(#path-7-inside-2_2043_392)"/>
<mask id="path-9-inside-3_2043_392" fill="white">
<path d="M427.566 491.717L211.502 491.717L211.502 275.653L427.566 275.653L427.566 491.717Z"/>
</mask>
<path d="M215.823 491.717L215.823 275.653L207.18 275.653L207.18 491.717L215.823 491.717Z" fill="url(#paint2_linear_2043_392)" mask="url(#path-9-inside-3_2043_392)"/>
<mask id="path-11-inside-4_2043_392" fill="white">
<path d="M189.901 275.655L-26.1634 275.655L-26.1634 491.719L189.901 491.719L189.901 275.655Z"/>
</mask>
<path d="M-21.8421 275.655L-21.8421 491.719L-30.4847 491.719L-30.4847 275.655L-21.8421 275.655Z" fill="url(#paint3_linear_2043_392)" mask="url(#path-11-inside-4_2043_392)"/>
<mask id="path-13-inside-5_2043_392" fill="white">
<path d="M-112.576 -147.833H103.488V68.2313H-112.576V-147.833Z"/>
</mask>
<path d="M99.1666 -147.833V68.2313H107.809V-147.833H99.1666Z" fill="url(#paint4_linear_2043_392)" mask="url(#path-13-inside-5_2043_392)"/>
<mask id="path-15-inside-6_2043_392" fill="white">
<path d="M319.556 -147.833L319.556 68.2313L103.492 68.2313L103.492 -147.833L319.556 -147.833Z"/>
</mask>
<path d="M319.556 63.91L103.492 63.91L103.492 72.5525L319.556 72.5525L319.556 63.91Z" fill="url(#paint5_linear_2043_392)" mask="url(#path-15-inside-6_2043_392)"/>
<mask id="path-17-inside-7_2043_392" fill="white">
<path d="M-231.417 279.973L-231.417 63.9092L693.337 63.9091L693.337 279.973L-231.417 279.973Z"/>
</mask>
<path d="M-231.417 68.2304L693.337 68.2304L693.337 59.5878L-231.417 59.5879L-231.417 68.2304Z" fill="url(#paint6_linear_2043_392)" mask="url(#path-17-inside-7_2043_392)"/>
<mask id="path-19-inside-8_2043_392" fill="white">
<path d="M535.606 68.2314L319.542 68.2315L319.542 -147.833L535.606 -147.833L535.606 68.2314Z"/>
</mask>
<path d="M323.864 68.2315L323.864 -147.833L315.221 -147.833L315.221 68.2315L323.864 68.2315Z" fill="url(#paint7_linear_2043_392)" mask="url(#path-19-inside-8_2043_392)"/>
<mask id="path-21-inside-9_2043_392" fill="white">
<path d="M427.581 279.975L211.517 279.975L211.517 63.9111L427.581 63.9111L427.581 279.975Z"/>
</mask>
<path d="M215.839 279.975L215.839 63.9111L207.196 63.9111L207.196 279.975L215.839 279.975Z" fill="url(#paint8_linear_2043_392)" mask="url(#path-21-inside-9_2043_392)"/>
<mask id="path-23-inside-10_2043_392" fill="white">
<path d="M667.412 63.9089L451.348 63.9089L451.348 279.973L667.412 279.973L667.412 63.9089Z"/>
</mask>
<path d="M455.67 63.9089L455.67 279.973L447.027 279.973L447.027 63.9089L455.67 63.9089Z" fill="url(#paint9_linear_2043_392)" mask="url(#path-23-inside-10_2043_392)"/>
</g>
</g>
<mask id="mask1_2043_392" style="mask-type:alpha" maskUnits="userSpaceOnUse" x="984" y="19" width="593" height="468">
<rect x="1577" y="486.519" width="593" height="467.519" transform="rotate(-180 1577 486.519)" fill="#D9D9D9"/>
</mask>
<g mask="url(#mask1_2043_392)">
<g style="mix-blend-mode:overlay">
<mask id="path-26-inside-11_2043_392" fill="white">
<path d="M2253.93 -167.198L2253.93 48.866L1329.17 48.8659L1329.17 -167.198L2253.93 -167.198Z"/>
</mask>
<path d="M2253.93 44.5447L1329.17 44.5447L1329.17 53.1872L2253.93 53.1873L2253.93 44.5447Z" fill="url(#paint10_linear_2043_392)" mask="url(#path-26-inside-11_2043_392)"/>
<mask id="path-28-inside-12_2043_392" fill="white">
<path d="M1486.91 44.5437H1702.97V260.608H1486.91V44.5437Z"/>
</mask>
<path d="M1698.65 44.5437V260.608H1707.29V44.5437H1698.65Z" fill="url(#paint11_linear_2043_392)" mask="url(#path-28-inside-12_2043_392)"/>
<mask id="path-30-inside-13_2043_392" fill="white">
<path d="M1117.43 -167.198H1333.5V48.866H1117.43V-167.198Z"/>
</mask>
<path d="M1329.18 -167.198V48.866H1337.82V-167.198H1329.18Z" fill="url(#paint12_linear_2043_392)" mask="url(#path-30-inside-13_2043_392)"/>
<mask id="path-32-inside-14_2043_392" fill="white">
<path d="M1355.1 48.8641L1571.16 48.8642L1571.16 -167.2L1355.1 -167.2L1355.1 48.8641Z"/>
</mask>
<path d="M1566.84 48.8642L1566.84 -167.2L1575.48 -167.2L1575.48 48.8642L1566.84 48.8642Z" fill="url(#paint13_linear_2043_392)" mask="url(#path-32-inside-14_2043_392)"/>
<mask id="path-34-inside-15_2043_392" fill="white">
<path d="M1657.58 472.352L1441.51 472.352L1441.51 256.288L1657.58 256.288L1657.58 472.352Z"/>
</mask>
<path d="M1445.83 472.352L1445.83 256.288L1437.19 256.288L1437.19 472.352L1445.83 472.352Z" fill="url(#paint14_linear_2043_392)" mask="url(#path-34-inside-15_2043_392)"/>
<mask id="path-36-inside-16_2043_392" fill="white">
<path d="M1225.44 472.352L1225.44 256.288L1441.51 256.288L1441.51 472.352L1225.44 472.352Z"/>
</mask>
<path d="M1225.44 260.609L1441.51 260.609L1441.51 251.966L1225.44 251.966L1225.44 260.609Z" fill="url(#paint15_linear_2043_392)" mask="url(#path-36-inside-16_2043_392)"/>
<mask id="path-38-inside-17_2043_392" fill="white">
<path d="M1776.42 44.5457L1776.42 260.61L851.663 260.61L851.663 44.5456L1776.42 44.5457Z"/>
</mask>
<path d="M1776.42 256.288L851.663 256.288L851.663 264.931L1776.42 264.931L1776.42 256.288Z" fill="url(#paint16_linear_2043_392)" mask="url(#path-38-inside-17_2043_392)"/>
<mask id="path-40-inside-18_2043_392" fill="white">
<path d="M1009.39 256.287H1225.46V472.351H1009.39V256.287Z"/>
</mask>
<path d="M1221.14 256.287V472.351H1229.78V256.287H1221.14Z" fill="url(#paint17_linear_2043_392)" mask="url(#path-40-inside-18_2043_392)"/>
<mask id="path-42-inside-19_2043_392" fill="white">
<path d="M1117.42 44.5437H1333.48V260.608H1117.42V44.5437Z"/>
</mask>
<path d="M1329.16 44.5437V260.608H1337.8V44.5437H1329.16Z" fill="url(#paint18_linear_2043_392)" mask="url(#path-42-inside-19_2043_392)"/>
<mask id="path-44-inside-20_2043_392" fill="white">
<path d="M878 261L1094 261L1094 -311L878 -311L878 261Z"/>
</mask>
<path d="M1089.68 261L1089.68 -311L1098.32 -311L1098.32 261L1089.68 261Z" fill="url(#paint19_linear_2043_392)" mask="url(#path-44-inside-20_2043_392)"/>
</g>
</g>
</g>
<defs>
<filter id="filter0_f_2043_392" x="-40" y="-323.051" width="1991" height="974.051" filterUnits="userSpaceOnUse" color-interpolation-filters="sRGB">
<feFlood flood-opacity="0" result="BackgroundImageFix"/>
<feBlend mode="normal" in="SourceGraphic" in2="BackgroundImageFix" result="shape"/>
<feGaussianBlur stdDeviation="177.5" result="effect1_foregroundBlur_2043_392"/>
</filter>
<filter id="filter1_f_2043_392" x="334" y="-57.5" width="1243" height="460.5" filterUnits="userSpaceOnUse" color-interpolation-filters="sRGB">
<feFlood flood-opacity="0" result="BackgroundImageFix"/>
<feBlend mode="normal" in="SourceGraphic" in2="BackgroundImageFix" result="shape"/>
<feGaussianBlur stdDeviation="77.5" result="effect1_foregroundBlur_2043_392"/>
</filter>
<filter id="filter2_f_2043_392" x="389" y="-2.5" width="1133" height="350.5" filterUnits="userSpaceOnUse" color-interpolation-filters="sRGB">
<feFlood flood-opacity="0" result="BackgroundImageFix"/>
<feBlend mode="normal" in="SourceGraphic" in2="BackgroundImageFix" result="shape"/>
<feGaussianBlur stdDeviation="50" result="effect1_foregroundBlur_2043_392"/>
</filter>
<linearGradient id="paint0_linear_2043_392" x1="-270.318" y1="275.653" x2="-708.928" y2="275.653" gradientUnits="userSpaceOnUse">
<stop stop-color="white"/>
<stop offset="1" stop-color="white" stop-opacity="0"/>
</linearGradient>
<linearGradient id="paint1_linear_2043_392" x1="-157.969" y1="63.9111" x2="-157.969" y2="279.975" gradientUnits="userSpaceOnUse">
<stop stop-color="white"/>
<stop offset="1" stop-color="white" stop-opacity="0"/>
</linearGradient>
<linearGradient id="paint2_linear_2043_392" x1="211.502" y1="275.653" x2="211.502" y2="491.717" gradientUnits="userSpaceOnUse">
<stop stop-color="white"/>
<stop offset="1" stop-color="white" stop-opacity="0"/>
</linearGradient>
<linearGradient id="paint3_linear_2043_392" x1="-26.1634" y1="491.719" x2="-26.1634" y2="275.655" gradientUnits="userSpaceOnUse">
<stop stop-color="white"/>
<stop offset="1" stop-color="white" stop-opacity="0"/>
</linearGradient>
<linearGradient id="paint4_linear_2043_392" x1="103.488" y1="68.2313" x2="103.488" y2="-147.833" gradientUnits="userSpaceOnUse">
<stop stop-color="white"/>
<stop offset="1" stop-color="white" stop-opacity="0"/>
</linearGradient>
<linearGradient id="paint5_linear_2043_392" x1="103.492" y1="68.2313" x2="319.556" y2="68.2313" gradientUnits="userSpaceOnUse">
<stop stop-color="white"/>
<stop offset="1" stop-color="white" stop-opacity="0"/>
</linearGradient>
<linearGradient id="paint6_linear_2043_392" x1="207.193" y1="63.9091" x2="-231.417" y2="63.9092" gradientUnits="userSpaceOnUse">
<stop stop-color="white"/>
<stop offset="1" stop-color="white" stop-opacity="0"/>
</linearGradient>
<linearGradient id="paint7_linear_2043_392" x1="319.542" y1="-147.833" x2="319.542" y2="68.2315" gradientUnits="userSpaceOnUse">
<stop stop-color="white"/>
<stop offset="1" stop-color="white" stop-opacity="0"/>
</linearGradient>
<linearGradient id="paint8_linear_2043_392" x1="211.517" y1="63.9111" x2="211.517" y2="279.975" gradientUnits="userSpaceOnUse">
<stop stop-color="white"/>
<stop offset="1" stop-color="white" stop-opacity="0"/>
</linearGradient>
<linearGradient id="paint9_linear_2043_392" x1="451.348" y1="279.973" x2="451.348" y2="63.9089" gradientUnits="userSpaceOnUse">
<stop stop-color="white"/>
<stop offset="1" stop-color="white" stop-opacity="0"/>
</linearGradient>
<linearGradient id="paint10_linear_2043_392" x1="1815.32" y1="48.866" x2="2253.93" y2="48.866" gradientUnits="userSpaceOnUse">
<stop stop-color="white"/>
<stop offset="1" stop-color="white" stop-opacity="0"/>
</linearGradient>
<linearGradient id="paint11_linear_2043_392" x1="1702.97" y1="260.608" x2="1702.97" y2="44.5437" gradientUnits="userSpaceOnUse">
<stop stop-color="white"/>
<stop offset="1" stop-color="white" stop-opacity="0"/>
</linearGradient>
<linearGradient id="paint12_linear_2043_392" x1="1333.5" y1="48.866" x2="1333.5" y2="-167.198" gradientUnits="userSpaceOnUse">
<stop stop-color="white"/>
<stop offset="1" stop-color="white" stop-opacity="0"/>
</linearGradient>
<linearGradient id="paint13_linear_2043_392" x1="1571.16" y1="-167.2" x2="1571.16" y2="48.8642" gradientUnits="userSpaceOnUse">
<stop stop-color="white"/>
<stop offset="1" stop-color="white" stop-opacity="0"/>
</linearGradient>
<linearGradient id="paint14_linear_2043_392" x1="1441.51" y1="256.288" x2="1441.51" y2="472.352" gradientUnits="userSpaceOnUse">
<stop stop-color="white"/>
<stop offset="1" stop-color="white" stop-opacity="0"/>
</linearGradient>
<linearGradient id="paint15_linear_2043_392" x1="1441.51" y1="256.288" x2="1225.44" y2="256.288" gradientUnits="userSpaceOnUse">
<stop stop-color="white"/>
<stop offset="1" stop-color="white" stop-opacity="0"/>
</linearGradient>
<linearGradient id="paint16_linear_2043_392" x1="1337.81" y1="260.61" x2="1776.42" y2="260.61" gradientUnits="userSpaceOnUse">
<stop stop-color="white"/>
<stop offset="1" stop-color="white" stop-opacity="0"/>
</linearGradient>
<linearGradient id="paint17_linear_2043_392" x1="1225.46" y1="472.351" x2="1225.46" y2="256.287" gradientUnits="userSpaceOnUse">
<stop stop-color="white"/>
<stop offset="1" stop-color="white" stop-opacity="0"/>
</linearGradient>
<linearGradient id="paint18_linear_2043_392" x1="1333.48" y1="260.608" x2="1333.48" y2="44.5437" gradientUnits="userSpaceOnUse">
<stop stop-color="white"/>
<stop offset="1" stop-color="white" stop-opacity="0"/>
</linearGradient>
<linearGradient id="paint19_linear_2043_392" x1="1094" y1="-311" x2="1094" y2="261" gradientUnits="userSpaceOnUse">
<stop stop-color="white"/>
<stop offset="1" stop-color="white" stop-opacity="0"/>
</linearGradient>
<clipPath id="clip0_2043_392">
<rect width="1920" height="732" fill="white"/>
</clipPath>
</defs>
</svg>
