<svg width="54" height="54" viewBox="0 0 54 54" fill="none" xmlns="http://www.w3.org/2000/svg">
<g clip-path="url(#clip0_2043_744)">
<path d="M27 54C41.9117 54 54 41.9117 54 27C54 12.0883 41.9117 0 27 0C12.0883 0 0 12.0883 0 27C0 41.9117 12.0883 54 27 54Z" fill="url(#paint0_linear_2043_744)"/>
<path d="M18.2766 28.9738L21.4799 37.8401C21.4799 37.8401 21.8804 38.6697 22.3093 38.6697C22.7381 38.6697 29.1167 32.034 29.1167 32.034L36.2098 18.3337L18.3909 26.6851L18.2766 28.9738Z" fill="#C8DAEA"/>
<path d="M22.5239 31.2476L21.909 37.7829C21.909 37.7829 21.6516 39.7854 23.6536 37.7829C25.6557 35.7804 27.572 34.2362 27.572 34.2362" fill="#A9C6D8"/>
<path d="M18.3345 29.29L11.7451 27.1431C11.7451 27.1431 10.9576 26.8236 11.2112 26.0991C11.2634 25.9497 11.3687 25.8226 11.6837 25.6041C13.1437 24.5864 38.7075 15.3981 38.7075 15.3981C38.7075 15.3981 39.4293 15.1549 39.855 15.3166C39.9604 15.3492 40.0551 15.4092 40.1296 15.4905C40.2042 15.5717 40.2558 15.6713 40.2792 15.779C40.3252 15.9693 40.3444 16.165 40.3363 16.3606C40.3343 16.5298 40.3138 16.6867 40.2983 16.9326C40.1426 19.4447 35.4833 38.1935 35.4833 38.1935C35.4833 38.1935 35.2045 39.2906 34.2057 39.3282C33.9603 39.3361 33.7158 39.2945 33.4867 39.2059C33.2577 39.1173 33.0488 38.9835 32.8726 38.8125C30.9126 37.1266 24.1383 32.5739 22.6414 31.5727C22.6077 31.5496 22.5792 31.5197 22.558 31.4847C22.5368 31.4498 22.5234 31.4107 22.5186 31.3702C22.4976 31.2646 22.6124 31.1339 22.6124 31.1339C22.6124 31.1339 34.4082 20.6489 34.7221 19.5482C34.7464 19.4629 34.6546 19.4209 34.5313 19.4582C33.7479 19.7464 20.1664 28.3232 18.6675 29.2698C18.5596 29.3024 18.4455 29.3094 18.3345 29.29Z" fill="white"/>
</g>
<defs>
<linearGradient id="paint0_linear_2043_744" x1="27" y1="54" x2="27" y2="0" gradientUnits="userSpaceOnUse">
<stop stop-color="#1D93D2"/>
<stop offset="1" stop-color="#38B0E3"/>
</linearGradient>
<clipPath id="clip0_2043_744">
<rect width="54" height="54" fill="white"/>
</clipPath>
</defs>
</svg>
